<svg version="1.2" xmlns="http://www.w3.org/2000/svg" viewBox="0 0 154 74">
	<title>logo perfect work-ai</title>
	<defs>
		<linearGradient id="g1" x1="30.6" y1="67.2" x2="30.6" y2="7.9" gradientUnits="userSpaceOnUse">
			<stop offset="0" stop-color="#ff561d"/>
			<stop offset="0" stop-color="#ff561d"/>
			<stop offset="0" stop-color="#ff561d"/>
			<stop offset="0" stop-color="#ff561d"/>
			<stop offset="0" stop-color="#ff581d"/>
			<stop offset=".1" stop-color="#ff581d"/>
			<stop offset=".1" stop-color="#ff581d"/>
			<stop offset=".1" stop-color="#ff581d"/>
			<stop offset=".1" stop-color="#ff5a1d"/>
			<stop offset=".1" stop-color="#ff5a1d"/>
			<stop offset=".1" stop-color="#ff5a1d"/>
			<stop offset=".1" stop-color="#ff5a1d"/>
			<stop offset=".1" stop-color="#ff5a1d"/>
			<stop offset=".1" stop-color="#ff5a1d"/>
			<stop offset=".1" stop-color="#ff5a1d"/>
			<stop offset=".1" stop-color="#ff5c1e"/>
			<stop offset=".2" stop-color="#ff5c1e"/>
			<stop offset=".2" stop-color="#ff5c1e"/>
			<stop offset=".2" stop-color="#ff5c1e"/>
			<stop offset=".2" stop-color="#ff5c1e"/>
			<stop offset=".2" stop-color="#ff5e1e"/>
			<stop offset=".2" stop-color="#ff5e1e"/>
			<stop offset=".2" stop-color="#ff5e1e"/>
			<stop offset=".2" stop-color="#ff5e1e"/>
			<stop offset=".2" stop-color="#ff5e1e"/>
			<stop offset=".3" stop-color="#ff5e1e"/>
			<stop offset=".3" stop-color="#ff601e"/>
			<stop offset=".3" stop-color="#ff601e"/>
			<stop offset=".3" stop-color="#ff601e"/>
			<stop offset=".3" stop-color="#ff601e"/>
			<stop offset=".3" stop-color="#ff621f"/>
			<stop offset=".3" stop-color="#ff621f"/>
			<stop offset=".3" stop-color="#ff641f"/>
			<stop offset=".3" stop-color="#ff641f"/>
			<stop offset=".3" stop-color="#ff661f"/>
			<stop offset=".4" stop-color="#ff661f"/>
			<stop offset=".4" stop-color="#ff6820"/>
			<stop offset=".4" stop-color="#ff6820"/>
			<stop offset=".4" stop-color="#ff6a20"/>
			<stop offset=".4" stop-color="#ff6c20"/>
			<stop offset=".4" stop-color="#ff6c20"/>
			<stop offset=".4" stop-color="#ff6e21"/>
			<stop offset=".4" stop-color="#ff7021"/>
			<stop offset=".4" stop-color="#ff7122"/>
			<stop offset=".4" stop-color="#ff7322"/>
			<stop offset=".4" stop-color="#ff7522"/>
			<stop offset=".5" stop-color="#ff7522"/>
			<stop offset=".5" stop-color="#ff7723"/>
			<stop offset=".5" stop-color="#ff7923"/>
			<stop offset=".5" stop-color="#ff7b23"/>
			<stop offset=".5" stop-color="#ff7d24"/>
			<stop offset=".5" stop-color="#ff7d24"/>
			<stop offset=".5" stop-color="#ff7f24"/>
			<stop offset=".5" stop-color="#ff8124"/>
			<stop offset=".5" stop-color="#ff8325"/>
			<stop offset=".6" stop-color="#ff8525"/>
			<stop offset=".6" stop-color="#ff8726"/>
			<stop offset=".6" stop-color="#ff8726"/>
			<stop offset=".6" stop-color="#ff8826"/>
			<stop offset=".6" stop-color="#ff8a26"/>
			<stop offset=".6" stop-color="#ff8c27"/>
			<stop offset=".6" stop-color="#ff8e27"/>
			<stop offset=".6" stop-color="#ff8e27"/>
			<stop offset=".6" stop-color="#ff9027"/>
			<stop offset=".6" stop-color="#ff9228"/>
			<stop offset=".6" stop-color="#ff9428"/>
			<stop offset=".7" stop-color="#ff9629"/>
			<stop offset=".7" stop-color="#ff9829"/>
			<stop offset=".7" stop-color="#ff9929"/>
			<stop offset=".7" stop-color="#ff9929"/>
			<stop offset=".7" stop-color="#ff9b2a"/>
			<stop offset=".7" stop-color="#ff9d2a"/>
			<stop offset=".7" stop-color="#ff9f2b"/>
			<stop offset=".7" stop-color="#ff9f2b"/>
			<stop offset=".7" stop-color="#ffa12b"/>
			<stop offset=".8" stop-color="#ffa32b"/>
			<stop offset=".8" stop-color="#ffa62c"/>
			<stop offset=".8" stop-color="#ffa82d"/>
			<stop offset=".8" stop-color="#ffaa2d"/>
			<stop offset=".8" stop-color="#ffac2e"/>
			<stop offset=".8" stop-color="#ffae2e"/>
			<stop offset=".8" stop-color="#ffb02e"/>
			<stop offset=".8" stop-color="#ffb32f"/>
			<stop offset=".8" stop-color="#ffb530"/>
			<stop offset=".8" stop-color="#ffb730"/>
			<stop offset=".9" stop-color="#ffb930"/>
			<stop offset=".9" stop-color="#ffbb31"/>
			<stop offset=".9" stop-color="#ffbe32"/>
			<stop offset=".9" stop-color="#ffc032"/>
			<stop offset=".9" stop-color="#ffc233"/>
			<stop offset=".9" stop-color="#ffc433"/>
			<stop offset=".9" stop-color="#ffc534"/>
			<stop offset=".9" stop-color="#ffc734"/>
			<stop offset=".9" stop-color="#ffcb35"/>
			<stop offset=".9" stop-color="#ffcd35"/>
			<stop offset=".9" stop-color="#ffce36"/>
			<stop offset="1" stop-color="#ffd036"/>
			<stop offset="1" stop-color="#ffd237"/>
			<stop offset="1" stop-color="#ffd437"/>
			<stop offset="1" stop-color="#ffd738"/>
			<stop offset="1" stop-color="#ffd939"/>
		</linearGradient>
	</defs>
	<style>
		.s0 { fill: #2c2e35 } 
		.s1 { fill: #ffffff } 
		.s2 { fill: none;stroke: #ffffff;stroke-linecap: round;stroke-linejoin: round;stroke-width: .4 } 
		.s3 { fill: none } 
		.s4 { fill: url(#g1) } 
	</style>
	<g id="Capa 1">
		<path id="&lt;Path&gt;" class="s0" d="m0 69.4v-64.8c0-2.5 2.1-4.6 4.6-4.6h144.8c2.5 0 4.6 2.1 4.6 4.6v64.8c0 2.5-2.1 4.6-4.6 4.6h-144.8c-2.5 0-4.6-2.1-4.6-4.6z" />
		<path id="&lt;Compound Path&gt;" fill-rule="evenodd" class="s1" d="m65.1 29.6h-0.9v-14.4h3.9q2.3 0 3.7 1.1q1.5 1.2 1.5 3.3q0 2.1-1.3 3.4q-0.7 0.7-1.7 1q-1 0.4-2.1 0.4h-3.1zm0-6.1h3q1 0 1.8-0.3q0.8-0.3 1.4-0.8q1.1-1.1 1.1-2.8q0-1.6-1.1-2.5q-1.2-0.9-3.2-0.9h-3z" />
		<path id="&lt;Path&gt;" class="s1" d="m77.4 16.2v5.4h6.8v0.9h-6.8v6.2h7v0.9h-7.9v-14.4h7.9v1z" />
		<path id="&lt;Compound Path&gt;" fill-rule="evenodd" class="s1" d="m95.6 23q-1 1-2.6 1.3l3.8 5l-0.7 0.6l-4.2-5.5h-3.2v5.2h-0.9v-14.4h4q2.2 0 3.6 1.1q0.8 0.6 1.2 1.4q0.4 0.9 0.4 1.9q0 2.1-1.4 3.4zm-6.9 0.5h3q1 0 1.8-0.3q0.9-0.3 1.5-0.9q1-1 1-2.7q0-1.2-0.4-1.9q-0.5-0.6-1.2-1q-0.7-0.3-1.4-0.4q-0.7-0.1-1.2-0.1h-3.1z" />
		<path id="&lt;Path&gt;" class="s1" d="m101.1 16.2v5.5h6.9v1h-6.9v6.9h-0.9v-14.4h8v1z" />
		<path id="&lt;Path&gt;" class="s1" d="m112.4 16.2v5.4h6.8v0.9h-6.8v6.2h6.9v0.9h-7.8v-14.4h7.8v1z" />
		<path id="&lt;Path&gt;" class="s1" d="m129.5 29.8q-1.5 0-2.9-0.6q-0.7-0.3-1.3-0.7q-0.6-0.3-1.1-0.9q-1-1-1.6-2.3q-0.5-1.4-0.5-2.9q0-1.5 0.5-2.9q0.6-1.3 1.6-2.3q1-1.1 2.4-1.6q1.4-0.6 2.9-0.6q1.5 0 2.9 0.6q1.3 0.5 2.3 1.6l-0.7 0.6q-0.9-0.9-2-1.4q-1.2-0.5-2.5-0.5q-1.4 0-2.5 0.5q-1.2 0.5-2.1 1.4q-0.9 0.9-1.4 2.1q-0.5 1.2-0.5 2.5q0 1.3 0.5 2.5q0.5 1.2 1.4 2.1q0.9 0.9 2.1 1.4q1.1 0.5 2.5 0.5q1.3 0 2.5-0.5q1.1-0.5 2-1.4l0.7 0.6q-1 1.1-2.3 1.6q-1.5 0.6-2.9 0.6z" />
		<path id="&lt;Path&gt;" class="s1" d="m147.9 16.2h-5v13.4h-0.9v-13.4h-5v-1h10.9z" />
		<path id="&lt;Path&gt;" class="s1" d="m89.8 33.3l-5.8 17h-2.3h-1.4l-3.8-10.7l-3.9 10.7h-1.4h-2.2l-5.9-17h4l3.7 10.9l4-10.9h3.4l3.9 10.9l3.8-10.9z" />
		<path id="&lt;Compound Path&gt;" fill-rule="evenodd" class="s1" d="m99.4 50.7q-1.9 0-3.5-0.7q-1.7-0.7-2.9-1.9q-1.2-1.2-1.9-2.9q-0.7-1.6-0.7-3.4q0-1.8 0.7-3.5q0.4-0.8 0.8-1.5q0.5-0.7 1.1-1.4q0.6-0.6 1.4-1.1q0.7-0.4 1.5-0.8q1.6-0.7 3.5-0.7q1.7 0 3.4 0.7q0.8 0.4 1.5 0.8q0.8 0.5 1.4 1.1q0.6 0.7 1.1 1.4q0.4 0.7 0.8 1.5q0.7 1.7 0.7 3.5q0 1.8-0.7 3.4q-0.4 0.8-0.8 1.6q-0.5 0.7-1.1 1.3q-0.6 0.6-1.4 1.1q-0.7 0.5-1.5 0.8q-1.7 0.7-3.4 0.7zm0-14.2q-1.1 0-2.1 0.5q-0.9 0.4-1.6 1.1q-0.7 0.7-1.2 1.6q-0.4 1-0.4 2.1q0 1 0.4 2q0.5 0.9 1.2 1.6q0.7 0.7 1.6 1.2q1 0.4 2.1 0.4q1 0 2-0.4q0.9-0.5 1.6-1.2q0.7-0.7 1.2-1.6q0.4-1 0.4-2q0-1.1-0.4-2.1q-0.5-0.9-1.2-1.6q-0.7-0.7-1.6-1.1q-1-0.5-2-0.5z" />
		<path id="&lt;Compound Path&gt;" fill-rule="evenodd" class="s1" d="m124.7 50.3h-4.5l-3.2-4.5h-1.9v4.5h-3.7v-17h6.2q1.5 0 2.7 0.4q1.2 0.3 2.1 1q0.5 0.4 0.9 0.9q0.4 0.5 0.7 1.1q0.5 1.2 0.5 2.6q0 1.3-0.4 2.5q-0.5 1.2-1.4 2.1q-0.8 0.7-1.6 1.2zm-9.6-8.2h2.5q1.6 0 2.4-0.8q0.8-0.8 0.8-2q0-2.3-3.2-2.3h-2.5z" />
		<path id="&lt;Path&gt;" class="s1" d="m135.9 40.5l9.7 9.8h-1.5h-3.8l-7.2-7.4l-2.1 1.8v5.6h-1.5h-2.2v-17h3.7v6.5l7.7-6.5h2.9h2.9z" />
		<g id="&lt;Group&gt;">
			<path id="&lt;Path&gt;" class="s2" d="m64.3 55.6h0.4v5.9h-0.4z" />
			<path id="&lt;Compound Path&gt;" class="s3" d="m64.3 55.6h0.4v5.9h-0.4z" />
		</g>
		<g id="&lt;Group&gt;">
			<path id="&lt;Path&gt;" class="s2" d="m71.3 58.2q0.2 0.2 0.3 0.5q0.1 0.3 0.1 0.6v2.2h-0.4v-2.2q0-0.3-0.1-0.5q0-0.2-0.2-0.3q-0.2-0.2-0.4-0.3q-0.2-0.1-0.4-0.1q-0.3 0-0.5 0.1q-0.2 0.1-0.3 0.3q-0.2 0.1-0.3 0.3q-0.1 0.2-0.1 0.5v2.2h-0.3v-2.2q0-0.3-0.1-0.5q-0.1-0.2-0.3-0.3q-0.1-0.2-0.3-0.3q-0.3-0.1-0.5-0.1q-0.2 0-0.4 0.1q-0.3 0.1-0.4 0.3q-0.2 0.1-0.3 0.3q0 0.2 0 0.5v2.2h-0.4v-2.2v-1.4h0.4v0.4q0-0.1 0-0.1q0.2-0.2 0.5-0.4q0.3-0.1 0.6-0.1q0.3 0 0.6 0.1q0.3 0.2 0.5 0.4q0.1 0.1 0.1 0.2q0.1 0 0.1 0.1q0.1-0.1 0.2-0.1q0-0.1 0.1-0.2q0.2-0.2 0.5-0.4q0.3-0.1 0.6-0.1q0.3 0 0.6 0.1q0.2 0.2 0.5 0.4z" />
			<path id="&lt;Compound Path&gt;" class="s3" d="m71.3 58.2q0.2 0.2 0.3 0.5q0.1 0.3 0.1 0.6v2.2h-0.4v-2.2q0-0.3-0.1-0.5q0-0.2-0.2-0.3q-0.2-0.2-0.4-0.3q-0.2-0.1-0.4-0.1q-0.3 0-0.5 0.1q-0.2 0.1-0.3 0.3q-0.2 0.1-0.3 0.3q-0.1 0.2-0.1 0.5v2.2h-0.3v-2.2q0-0.3-0.1-0.5q-0.1-0.2-0.3-0.3q-0.1-0.2-0.3-0.3q-0.3-0.1-0.5-0.1q-0.2 0-0.4 0.1q-0.3 0.1-0.4 0.3q-0.2 0.1-0.3 0.3q0 0.2 0 0.5v2.2h-0.4v-2.2v-1.4h0.4v0.4q0-0.1 0-0.1q0.2-0.2 0.5-0.4q0.3-0.1 0.6-0.1q0.3 0 0.6 0.1q0.3 0.2 0.5 0.4q0.1 0.1 0.1 0.2q0.1 0 0.1 0.1q0.1-0.1 0.2-0.1q0-0.1 0.1-0.2q0.2-0.2 0.5-0.4q0.3-0.1 0.6-0.1q0.3 0 0.6 0.1q0.2 0.2 0.5 0.4z" />
		</g>
		<g id="&lt;Group&gt;">
			<path id="&lt;Compound Path&gt;" fill-rule="evenodd" class="s2" d="m72.9 57.9h0.4v0.4q0 0 0 0q0.3-0.3 0.7-0.4q0.3-0.1 0.7-0.1q0.4 0 0.8 0.1q0.3 0.1 0.6 0.4q0.3 0.3 0.4 0.7q0.2 0.3 0.2 0.7q0 0.4-0.2 0.7q-0.1 0.4-0.4 0.7q-0.3 0.2-0.6 0.4q-0.4 0.1-0.8 0.1q-0.4 0-0.7-0.1q-0.4-0.2-0.7-0.4v2.1h-0.4zm1.8 3.4q0.3 0 0.6-0.1q0.3-0.1 0.5-0.3q0.2-0.2 0.3-0.5q0.2-0.3 0.2-0.6q0-0.3-0.2-0.6q-0.1-0.3-0.3-0.5q-0.2-0.2-0.5-0.4q-0.3-0.1-0.6-0.1q-0.4 0-0.8 0.2q-0.4 0.3-0.6 0.6v1.5q0.2 0.4 0.6 0.6q0.4 0.2 0.8 0.2z" />
			<path id="&lt;Compound Path&gt;" class="s3" d="m74.8 61.3q0.3-0.1 0.5-0.2q0.3-0.1 0.5-0.3q0.2-0.2 0.3-0.5q0.2-0.3 0.2-0.6q0-0.3-0.2-0.6q-0.1-0.3-0.3-0.5q-0.2-0.2-0.5-0.3q-0.2-0.2-0.5-0.2v-0.3q0.3 0 0.7 0.1q0.3 0.1 0.6 0.4q0.3 0.3 0.4 0.7q0.2 0.3 0.2 0.7q0 0.4-0.2 0.7q-0.1 0.4-0.4 0.7q-0.3 0.2-0.6 0.4q-0.4 0.1-0.7 0.1zm-0.1 0q0.1 0 0.1 0v0.4h-0.1q-0.4 0-0.7-0.1q-0.4-0.2-0.7-0.4v-0.1v2.2h-0.4v-5.4h0.4v0.5q0 0 0 0q0.3-0.3 0.7-0.4q0.3-0.2 0.7-0.2h0.1v0.4q0 0-0.1 0q-0.4 0-0.8 0.2q-0.4 0.3-0.6 0.6v1.5q0.2 0.4 0.6 0.6q0.4 0.2 0.8 0.2z" />
		</g>
		<g id="&lt;Group&gt;">
			<path id="&lt;Path&gt;" class="s2" d="m79.3 57.8q0.6 0 0.9 0.2l-0.2 0.3q-0.3-0.2-0.7-0.2q-0.8 0-1.1 0.8q0 0.1-0.1 0.3q0 0.3 0 0.6v1.7h-0.1h-0.3v-3.6h0.3v0.5q0.5-0.6 1.3-0.6z" />
			<path id="&lt;Compound Path&gt;" class="s3" d="m79.3 57.8q0.6 0 0.9 0.2l-0.2 0.3q-0.3-0.2-0.7-0.2q-0.8 0-1.1 0.8q0 0.1-0.1 0.3q0 0.3 0 0.6v1.7h-0.1h-0.3v-3.6h0.3v0.5q0.5-0.6 1.3-0.6z" />
		</g>
		<g id="&lt;Group&gt;">
			<path id="&lt;Compound Path&gt;" fill-rule="evenodd" class="s2" d="m82.7 61.6q-0.3 0-0.7-0.1q-0.4-0.1-0.6-0.4q-0.3-0.3-0.5-0.7q-0.1-0.3-0.1-0.7q0-0.4 0.1-0.8q0.2-0.3 0.5-0.6q0.2-0.3 0.6-0.4q0.4-0.2 0.7-0.2q0.5 0 0.8 0.2q0.4 0.1 0.6 0.4q0.3 0.3 0.4 0.6q0.2 0.4 0.2 0.8v0.2h-3.5q0 0.3 0.2 0.5q0.1 0.3 0.3 0.5q0.2 0.2 0.5 0.3q0.3 0.1 0.5 0.1q0.5 0 0.8-0.2q0.4-0.3 0.6-0.6l0.3 0.2q-0.2 0.4-0.7 0.7q-0.4 0.2-1 0.2zm-1.5-2.1h3.1q0-0.3-0.2-0.5q-0.1-0.3-0.3-0.5q-0.2-0.2-0.5-0.3q-0.3-0.1-0.6-0.1q-0.3 0-0.5 0.1q-0.3 0.1-0.5 0.3q-0.2 0.2-0.3 0.5q-0.2 0.2-0.2 0.5z" />
			<path id="&lt;Compound Path&gt;" class="s3" d="m82.7 59.5h1.6q0-0.3-0.2-0.5q-0.1-0.3-0.3-0.5q-0.2-0.2-0.5-0.3q-0.3-0.1-0.6-0.1v-0.4q0.5 0 0.8 0.2q0.4 0.1 0.6 0.4q0.3 0.3 0.4 0.6q0.2 0.4 0.2 0.8v0.2h-2zm0 2.1v-0.4q0.5 0 0.8-0.2q0.4-0.2 0.6-0.5l0.3 0.2q-0.2 0.4-0.7 0.7q-0.4 0.2-1 0.2zm-1.5-2.1h1.5v0.4h-1.5q0 0.3 0.2 0.5q0.1 0.3 0.3 0.4q0.2 0.2 0.5 0.3q0.3 0.1 0.5 0.1v0.4q-0.3 0-0.7-0.1q-0.4-0.2-0.6-0.4q-0.3-0.3-0.5-0.7q-0.1-0.3-0.1-0.7q0-0.4 0.1-0.8q0.2-0.3 0.5-0.6q0.2-0.3 0.6-0.4q0.4-0.2 0.7-0.2v0.4q-0.3 0-0.5 0.1q-0.3 0.1-0.5 0.3q-0.2 0.2-0.3 0.4q-0.2 0.3-0.2 0.6z" />
		</g>
		<g id="&lt;Group&gt;">
			<path id="&lt;Path&gt;" class="s2" d="m87 61.7q0 0 0 0q-0.1-0.1-0.1-0.1q-0.2 0-0.4 0q-0.2-0.1-0.4-0.2q-0.1-0.1-0.3-0.2q-0.1-0.1-0.2-0.3l0.4-0.1q0 0.1 0.1 0.2q0.1 0 0.2 0.1q0.2 0.1 0.3 0.1q0.2 0.1 0.3 0.1h0.1q0.1 0 0.3-0.1q0.2 0 0.3-0.1q0.2-0.1 0.3-0.2q0.1-0.2 0.2-0.4q0-0.2-0.2-0.4q-0.1-0.2-0.3-0.2q-0.3-0.1-0.6-0.1q-0.1 0-0.2 0q-0.1 0-0.3-0.1q-0.2 0-0.3-0.1q-0.2-0.1-0.3-0.2q-0.2-0.3-0.2-0.6q0-0.4 0.3-0.7q0.2-0.2 0.6-0.3q0.2-0.1 0.4-0.1q0.3 0.1 0.5 0.1q0.2 0.1 0.4 0.2q0.2 0.2 0.3 0.3l-0.3 0.2q-0.2-0.2-0.5-0.3q-0.2-0.1-0.4-0.1q-0.2 0-0.3 0q-0.1 0.1-0.2 0.1q-0.1 0.1-0.2 0.1q-0.1 0.1-0.2 0.2q0 0.1 0 0.3q0 0.2 0.1 0.4q0.1 0 0.2 0.1q0.1 0 0.2 0.1q0.2 0 0.3 0q0.1 0 0.1 0q0.4 0 0.7 0.1q0.3 0.1 0.5 0.3q0.3 0.3 0.2 0.7q0 0.3-0.2 0.6q-0.1 0.2-0.4 0.3q-0.2 0.2-0.4 0.2q-0.2 0.1-0.4 0.1z" />
			<path id="&lt;Compound Path&gt;" class="s3" d="m87 61.7q0 0 0 0q-0.1-0.1-0.1-0.1q-0.2 0-0.4 0q-0.2-0.1-0.4-0.2q-0.1-0.1-0.3-0.2q-0.1-0.1-0.2-0.3l0.4-0.1q0 0.1 0.1 0.2q0.1 0 0.2 0.1q0.2 0.1 0.3 0.1q0.2 0.1 0.3 0.1h0.1q0.1 0 0.3-0.1q0.2 0 0.3-0.1q0.2-0.1 0.3-0.2q0.1-0.2 0.2-0.4q0-0.2-0.2-0.4q-0.1-0.2-0.3-0.2q-0.3-0.1-0.6-0.1q-0.1 0-0.2 0q-0.1 0-0.3-0.1q-0.2 0-0.3-0.1q-0.2-0.1-0.3-0.2q-0.2-0.3-0.2-0.6q0-0.4 0.3-0.7q0.2-0.2 0.6-0.3q0.2-0.1 0.4-0.1q0.3 0.1 0.5 0.1q0.2 0.1 0.4 0.2q0.2 0.2 0.3 0.3l-0.3 0.2q-0.2-0.2-0.5-0.3q-0.2-0.1-0.4-0.1q-0.2 0-0.3 0q-0.1 0.1-0.2 0.1q-0.1 0.1-0.2 0.1q-0.1 0.1-0.2 0.2q0 0.1 0 0.3q0 0.2 0.1 0.4q0.1 0 0.2 0.1q0.1 0 0.2 0.1q0.2 0 0.3 0q0.1 0 0.1 0q0.4 0 0.7 0.1q0.3 0.1 0.5 0.3q0.3 0.3 0.2 0.7q0 0.3-0.2 0.6q-0.1 0.2-0.4 0.3q-0.2 0.2-0.4 0.2q-0.2 0.1-0.4 0.1z" />
		</g>
		<g id="&lt;Group&gt;">
			<path id="&lt;Compound Path&gt;" fill-rule="evenodd" class="s2" d="m91.3 61.6q-0.4 0-0.7-0.1q-0.4-0.2-0.7-0.4q-0.2-0.3-0.4-0.7q-0.1-0.3-0.1-0.7q0-0.4 0.1-0.8q0.2-0.3 0.4-0.6q0.3-0.3 0.7-0.4q0.3-0.2 0.7-0.2q0.4 0 0.8 0.2q0.3 0.1 0.6 0.4q0.3 0.3 0.4 0.6q0.2 0.4 0.2 0.8q0 0.4-0.2 0.7q-0.1 0.4-0.4 0.7q-0.3 0.2-0.6 0.4q-0.4 0.1-0.8 0.1zm0-3.5q-0.3 0-0.6 0.1q-0.3 0.2-0.5 0.4q-0.2 0.2-0.3 0.5q-0.2 0.3-0.2 0.6q0 0.3 0.2 0.6q0.1 0.3 0.3 0.5q0.2 0.2 0.5 0.3q0.3 0.2 0.6 0.2q0.3 0 0.6-0.2q0.3-0.1 0.5-0.3q0.2-0.2 0.4-0.5q0.1-0.3 0.1-0.6q0-0.3-0.1-0.6q-0.2-0.3-0.4-0.5q-0.2-0.2-0.5-0.4q-0.3-0.1-0.6-0.1z" />
			<path id="&lt;Compound Path&gt;" class="s3" d="m91.3 61.3q0.3 0 0.6-0.2q0.3-0.1 0.5-0.3q0.2-0.2 0.4-0.5q0.1-0.3 0.1-0.6q0-0.3-0.1-0.6q-0.2-0.3-0.4-0.5q-0.2-0.2-0.5-0.4q-0.3-0.1-0.6-0.1v-0.4q0.4 0 0.8 0.2q0.3 0.1 0.6 0.4q0.3 0.3 0.4 0.6q0.2 0.4 0.2 0.8q0 0.4-0.2 0.7q-0.1 0.4-0.4 0.7q-0.3 0.2-0.6 0.4q-0.4 0.1-0.8 0.1zm0-3.1q-0.3 0-0.6 0.1q-0.3 0.1-0.5 0.4q-0.2 0.2-0.3 0.5q-0.2 0.2-0.2 0.6q0 0.3 0.2 0.6q0.1 0.3 0.3 0.5q0.2 0.2 0.5 0.3q0.3 0.1 0.6 0.1v0.4q-0.4 0-0.7-0.1q-0.4-0.2-0.7-0.4q-0.2-0.3-0.4-0.7q-0.1-0.3-0.1-0.7q0-0.4 0.1-0.8q0.2-0.3 0.4-0.6q0.3-0.3 0.7-0.4q0.3-0.2 0.7-0.2z" />
		</g>
		<g id="&lt;Group&gt;">
			<path id="&lt;Path&gt;" class="s2" d="m95.5 61.7q0 0 0 0q-0.1-0.1-0.1-0.1q-0.2 0-0.4 0q-0.2-0.1-0.4-0.2q-0.1-0.1-0.3-0.2q-0.1-0.1-0.2-0.3l0.3-0.1q0.1 0.1 0.2 0.2q0.1 0 0.2 0.1q0.2 0.1 0.3 0.1q0.2 0.1 0.3 0.1q0.2 0 0.4-0.1q0.1 0 0.3-0.1q0.2-0.1 0.3-0.2q0.1-0.2 0.2-0.4q0-0.2-0.2-0.4q-0.1-0.2-0.3-0.2q-0.3-0.1-0.6-0.1q-0.1 0-0.2 0q-0.2 0-0.3-0.1q-0.2 0-0.3-0.1q-0.2-0.1-0.3-0.2q-0.2-0.3-0.2-0.6q0-0.4 0.3-0.7q0.2-0.2 0.6-0.3q0.2-0.1 0.4-0.1q0.3 0.1 0.5 0.1q0.2 0.1 0.4 0.2q0.2 0.2 0.3 0.3l-0.4 0.2q-0.1-0.2-0.4-0.3q-0.2-0.1-0.4-0.1q-0.2 0-0.4 0q0 0.1-0.1 0.1q-0.2 0.1-0.2 0.1q-0.1 0.1-0.2 0.2q0 0.1 0 0.3q-0.1 0.2 0.1 0.4q0.1 0 0.2 0.1q0.1 0 0.2 0.1q0.1 0 0.2 0q0.1 0 0.2 0q0.4 0 0.7 0.1q0.3 0.1 0.5 0.3q0.3 0.3 0.2 0.7q0 0.3-0.2 0.6q-0.1 0.2-0.4 0.3q-0.2 0.2-0.4 0.2q-0.2 0.1-0.4 0.1z" />
			<path id="&lt;Compound Path&gt;" class="s3" d="m95.5 61.7q0 0 0 0q-0.1-0.1-0.1-0.1q-0.2 0-0.4 0q-0.2-0.1-0.4-0.2q-0.1-0.1-0.3-0.2q-0.1-0.1-0.2-0.3l0.3-0.1q0.1 0.1 0.2 0.2q0.1 0 0.2 0.1q0.2 0.1 0.3 0.1q0.2 0.1 0.3 0.1q0.2 0 0.4-0.1q0.1 0 0.3-0.1q0.2-0.1 0.3-0.2q0.1-0.2 0.2-0.4q0-0.2-0.2-0.4q-0.1-0.2-0.3-0.2q-0.3-0.1-0.6-0.1q-0.1 0-0.2 0q-0.2 0-0.3-0.1q-0.2 0-0.3-0.1q-0.2-0.1-0.3-0.2q-0.2-0.3-0.2-0.6q0-0.4 0.3-0.7q0.2-0.2 0.6-0.3q0.2-0.1 0.4-0.1q0.3 0.1 0.5 0.1q0.2 0.1 0.4 0.2q0.2 0.2 0.3 0.3l-0.4 0.2q-0.1-0.2-0.4-0.3q-0.2-0.1-0.4-0.1q-0.2 0-0.4 0q0 0.1-0.1 0.1q-0.2 0.1-0.2 0.1q-0.1 0.1-0.2 0.2q0 0.1 0 0.3q-0.1 0.2 0.1 0.4q0.1 0 0.2 0.1q0.1 0 0.2 0.1q0.1 0 0.2 0q0.1 0 0.2 0q0.4 0 0.7 0.1q0.3 0.1 0.5 0.3q0.3 0.3 0.2 0.7q0 0.3-0.2 0.6q-0.1 0.2-0.4 0.3q-0.2 0.2-0.4 0.2q-0.2 0.1-0.4 0.1z" />
		</g>
		<g id="&lt;Group&gt;">
			<path id="&lt;Path&gt;" class="s2" d="m104.6 58l-2.9 5.3l-0.4-0.2l0.9-1.6l-1.8-3.5l0.3-0.2l1.7 3.3l1.9-3.3z" />
			<path id="&lt;Compound Path&gt;" class="s3" d="m104.6 58l-2.9 5.3l-0.4-0.2l0.9-1.6l-1.8-3.5l0.3-0.2l1.7 3.3l1.9-3.3z" />
		</g>
		<g id="&lt;Group&gt;">
			<path id="&lt;Compound Path&gt;" fill-rule="evenodd" class="s2" d="m108.6 61.5h-0.4v-5.9h1.6q0.9 0 1.5 0.5q0.6 0.4 0.6 1.3q0 0.9-0.5 1.4q-0.3 0.3-0.7 0.4q-0.4 0.2-0.9 0.2h-1.2zm0-2.5h1.2q0.4 0 0.7-0.1q0.4-0.1 0.6-0.4q0.5-0.4 0.5-1.1q0-0.7-0.5-1q-0.5-0.4-1.3-0.4h-1.2z" />
			<path id="&lt;Compound Path&gt;" class="s3" d="m110.1 59q0.2 0 0.4-0.1q0.4-0.1 0.6-0.3q0.5-0.5 0.5-1.2q0-0.6-0.5-1q-0.4-0.3-1-0.4v-0.4q0.7 0.1 1.2 0.5q0.6 0.4 0.6 1.3q0 0.9-0.5 1.4q-0.3 0.3-0.7 0.4q-0.3 0.2-0.6 0.2zm-1.5 0h1.2q0.1 0 0.3 0v0.4q-0.1 0-0.3 0h-1.2v2.1h-0.4v-5.9h1.6q0.1 0 0.3 0v0.4q-0.2 0-0.3 0h-1.2z" />
		</g>
		<g id="&lt;Group&gt;">
			<path id="&lt;Path&gt;" class="s2" d="m116.5 61.5h-0.3v-0.4q-0.1 0-0.1 0q0 0.1-0.1 0.1q-0.2 0.2-0.5 0.4q-0.3 0.1-0.7 0.1q-0.7 0-1.1-0.5q-0.3-0.2-0.4-0.5q-0.1-0.3-0.1-0.7v-2.1h0.3v2.1q0 0.3 0.1 0.5q0.1 0.3 0.3 0.4q0.2 0.2 0.4 0.3q0.3 0.1 0.5 0.1q0.3 0 0.6-0.1q0.2-0.1 0.4-0.3q0.2-0.1 0.3-0.4q0.1-0.2 0.1-0.5v-2.1h0.3z" />
			<path id="&lt;Compound Path&gt;" class="s3" d="m116.5 61.5h-0.3v-0.4q-0.1 0-0.1 0q0 0.1-0.1 0.1q-0.2 0.2-0.5 0.4q-0.3 0.1-0.7 0.1q-0.7 0-1.1-0.5q-0.3-0.2-0.4-0.5q-0.1-0.3-0.1-0.7v-2.1h0.3v2.1q0 0.3 0.1 0.5q0.1 0.3 0.3 0.4q0.2 0.2 0.4 0.3q0.3 0.1 0.5 0.1q0.3 0 0.6-0.1q0.2-0.1 0.4-0.3q0.2-0.1 0.3-0.4q0.1-0.2 0.1-0.5v-2.1h0.3z" />
		</g>
		<g id="&lt;Group&gt;">
			<path id="&lt;Compound Path&gt;" fill-rule="evenodd" class="s2" d="m117.8 55.5h0.3v2.8q0.3-0.2 0.7-0.4q0.3-0.1 0.7-0.1q0.4 0 0.8 0.1q0.3 0.2 0.6 0.4q0.3 0.3 0.4 0.7q0.2 0.3 0.2 0.7q0 0.4-0.2 0.7q-0.1 0.4-0.4 0.7q-0.3 0.2-0.6 0.4q-0.4 0.1-0.8 0.1q-0.4 0-0.7-0.1q-0.4-0.2-0.7-0.4q0 0 0 0v0.4h-0.3zm1.7 5.8q0.3 0 0.6-0.1q0.3-0.2 0.5-0.4q0.2-0.2 0.4-0.5q0.1-0.3 0.1-0.6q0-0.3-0.1-0.6q-0.2-0.3-0.4-0.5q-0.2-0.2-0.5-0.3q-0.3-0.1-0.6-0.1q-0.4 0-0.8 0.2q-0.4 0.2-0.6 0.6v1.4q0.2 0.4 0.6 0.6q0.4 0.3 0.8 0.3z" />
			<path id="&lt;Compound Path&gt;" class="s3" d="m119.6 61.2q0.3 0 0.5-0.1q0.3-0.1 0.5-0.3q0.2-0.2 0.4-0.5q0.1-0.3 0.1-0.6q0-0.3-0.1-0.6q-0.2-0.3-0.4-0.5q-0.2-0.2-0.5-0.3q-0.2-0.1-0.5-0.2v-0.3q0.3 0 0.7 0.1q0.3 0.2 0.6 0.4q0.3 0.3 0.4 0.7q0.2 0.3 0.2 0.7q0 0.4-0.2 0.7q-0.1 0.4-0.4 0.7q-0.3 0.2-0.6 0.4q-0.4 0.1-0.7 0.1zm-0.1 0q0.1 0 0.1 0v0.4h-0.1q-0.4 0-0.7-0.1q-0.4-0.2-0.7-0.4q0-0.1 0-0.1v0.5h-0.3v-6h0.3v2.8q0.3-0.3 0.7-0.4q0.3-0.2 0.7-0.2h0.1v0.4q0 0-0.1 0q-0.4 0-0.8 0.3q-0.4 0.2-0.6 0.6v1.4q0.2 0.4 0.6 0.6q0.4 0.2 0.8 0.2z" />
		</g>
		<g id="&lt;Group&gt;">
			<path id="&lt;Path&gt;" class="s2" d="m122.5 55.5h0.4v6h-0.4z" />
			<path id="&lt;Compound Path&gt;" class="s3" d="m122.5 55.5h0.4v6h-0.4z" />
		</g>
		<g id="&lt;Group&gt;">
			<path id="&lt;Compound Path&gt;" class="s2" d="m124.5 61.5h-0.4v-3.6h0.4zm0.1-4.8q0 0.1-0.1 0.2q-0.1 0.1-0.2 0.1q-0.2 0-0.3-0.1q-0.1-0.1-0.1-0.2q0-0.2 0.1-0.3q0.1-0.1 0.3-0.1q0.1 0 0.2 0.1q0.1 0.1 0.1 0.3z" />
			<path id="&lt;Compound Path&gt;" class="s3" d="m124.5 61.5h-0.4v-3.6h0.4zm0.1-4.8q0 0.1-0.1 0.2q-0.1 0.1-0.2 0.1q-0.2 0-0.3-0.1q-0.1-0.1-0.1-0.2q0-0.2 0.1-0.3q0.1-0.1 0.3-0.1q0.1 0 0.2 0.1q0.1 0.1 0.1 0.3z" />
		</g>
		<g id="&lt;Group&gt;">
			<path id="&lt;Path&gt;" class="s2" d="m127.4 61.6q-0.4 0-0.7-0.1q-0.4-0.2-0.7-0.4q-0.2-0.3-0.4-0.7q-0.1-0.3-0.1-0.7q0-0.4 0.1-0.8q0.2-0.3 0.4-0.6q0.3-0.3 0.7-0.4q0.3-0.1 0.7-0.1q0.4 0 0.8 0.1q0.3 0.1 0.6 0.4l-0.3 0.3q-0.2-0.2-0.5-0.4q-0.3-0.1-0.6-0.1q-0.3 0-0.6 0.2q-0.3 0.1-0.5 0.3q-0.2 0.2-0.3 0.5q-0.2 0.3-0.2 0.6q0 0.3 0.2 0.6q0.1 0.3 0.3 0.5q0.2 0.2 0.5 0.3q0.3 0.2 0.6 0.2q0.3 0 0.6-0.2q0.3-0.1 0.5-0.3l0.3 0.3q-0.3 0.2-0.6 0.4q-0.4 0.1-0.8 0.1z" />
			<path id="&lt;Compound Path&gt;" class="s3" d="m127.4 61.6q-0.4 0-0.7-0.1q-0.4-0.2-0.7-0.4q-0.2-0.3-0.4-0.7q-0.1-0.3-0.1-0.7q0-0.4 0.1-0.8q0.2-0.3 0.4-0.6q0.3-0.3 0.7-0.4q0.3-0.1 0.7-0.1q0.4 0 0.8 0.1q0.3 0.1 0.6 0.4l-0.3 0.3q-0.2-0.2-0.5-0.4q-0.3-0.1-0.6-0.1q-0.3 0-0.6 0.2q-0.3 0.1-0.5 0.3q-0.2 0.2-0.3 0.5q-0.2 0.3-0.2 0.6q0 0.3 0.2 0.6q0.1 0.3 0.3 0.5q0.2 0.2 0.5 0.3q0.3 0.2 0.6 0.2q0.3 0 0.6-0.2q0.3-0.1 0.5-0.3l0.3 0.3q-0.3 0.2-0.6 0.4q-0.4 0.1-0.8 0.1z" />
		</g>
		<g id="&lt;Group&gt;">
			<path id="&lt;Compound Path&gt;" class="s2" d="m130.2 61.5h-0.3v-3.6h0.3zm0.2-4.8q0 0.1-0.1 0.2q-0.1 0.1-0.2 0.1q-0.2 0-0.3-0.1q-0.1-0.1-0.1-0.2q0-0.2 0.1-0.3q0.1-0.1 0.3-0.1q0.1 0 0.2 0.1q0.1 0.1 0.1 0.3z" />
			<path id="&lt;Compound Path&gt;" class="s3" d="m130.2 61.5h-0.3v-3.6h0.3zm0.2-4.8q0 0.1-0.1 0.2q-0.1 0.1-0.2 0.1q-0.2 0-0.3-0.1q-0.1-0.1-0.1-0.2q0-0.2 0.1-0.3q0.1-0.1 0.3-0.1q0.1 0 0.2 0.1q0.1 0.1 0.1 0.3z" />
		</g>
		<g id="&lt;Group&gt;">
			<path id="&lt;Compound Path&gt;" fill-rule="evenodd" class="s2" d="m135 61.5h-0.4v-0.4q0 0 0 0q-0.3 0.2-0.6 0.4q-0.4 0.1-0.8 0.1q-0.4 0-0.7-0.1q-0.4-0.2-0.7-0.4q-0.2-0.3-0.4-0.7q-0.1-0.3-0.1-0.7q0-0.4 0.1-0.7q0.2-0.4 0.4-0.7q0.3-0.3 0.7-0.4q0.3-0.1 0.7-0.1q0.4 0 0.8 0.1q0.3 0.1 0.6 0.4v-2.8h0.4zm-1.8-0.3q0.5 0 0.8-0.2q0.4-0.2 0.6-0.6v-1.5q-0.2-0.3-0.6-0.6q-0.3-0.2-0.8-0.2q-0.3 0-0.6 0.1q-0.3 0.1-0.5 0.4q-0.2 0.2-0.3 0.5q-0.2 0.2-0.2 0.6q0 0.3 0.2 0.6q0.1 0.3 0.3 0.5q0.2 0.2 0.5 0.3q0.3 0.1 0.6 0.1z" />
			<path id="&lt;Compound Path&gt;" class="s3" d="m133.2 61.3q0.5 0 0.8-0.3q0.4-0.2 0.6-0.6v-1.4q-0.2-0.4-0.6-0.6q-0.3-0.3-0.8-0.3q0 0-0.1 0v-0.3h0.1q0.4 0 0.8 0.1q0.3 0.1 0.6 0.4v-2.8h0.4v6h-0.4v-0.4q0 0 0 0q-0.3 0.2-0.6 0.4q-0.4 0.1-0.8 0.1h-0.1v-0.3zm-0.1-3.2q-0.2 0-0.5 0.2q-0.3 0.1-0.5 0.3q-0.2 0.2-0.3 0.5q-0.1 0.3-0.1 0.6q0 0.3 0.1 0.6q0.1 0.3 0.3 0.5q0.2 0.2 0.5 0.3q0.3 0.1 0.5 0.2v0.3q-0.3 0-0.6-0.1q-0.4-0.2-0.7-0.4q-0.2-0.3-0.4-0.7q-0.1-0.3-0.1-0.7q0-0.4 0.1-0.8q0.2-0.3 0.4-0.6q0.3-0.3 0.7-0.4q0.3-0.1 0.6-0.1z" />
		</g>
		<g id="&lt;Group&gt;">
			<path id="&lt;Compound Path&gt;" fill-rule="evenodd" class="s2" d="m139.7 61.5h-0.4v-0.4q-0.3 0.2-0.6 0.4q-0.4 0.1-0.8 0.1q-0.4 0-0.7-0.1q-0.4-0.2-0.6-0.4q-0.3-0.3-0.5-0.7q-0.1-0.3-0.1-0.7q0-0.4 0.1-0.7q0.2-0.4 0.5-0.7q0.2-0.2 0.6-0.4q0.3-0.1 0.7-0.1q0.4 0 0.8 0.1q0.3 0.2 0.6 0.4q0 0 0 0q0 0 0 0v-0.3h0.4zm-1.8-0.2q0.5 0 0.8-0.3q0.4-0.2 0.6-0.6v-1.4q-0.2-0.4-0.6-0.6q-0.3-0.3-0.8-0.3q-0.3 0-0.6 0.2q-0.3 0.1-0.5 0.3q-0.2 0.2-0.3 0.5q-0.1 0.3-0.1 0.6q0 0.3 0.1 0.6q0.1 0.3 0.3 0.5q0.2 0.2 0.5 0.3q0.3 0.2 0.6 0.2z" />
			<path id="&lt;Compound Path&gt;" class="s3" d="m137.9 61.3q0.5 0 0.8-0.3q0.4-0.2 0.6-0.6v-1.4q-0.2-0.4-0.6-0.6q-0.3-0.3-0.8-0.3h-0.1v-0.3h0.1q0.4 0 0.8 0.1q0.3 0.2 0.6 0.4q0 0 0 0q0 0 0 0v-0.3h0.4v3.5h-0.4v-0.4q-0.3 0.2-0.6 0.4q-0.4 0.1-0.8 0.1h-0.1v-0.4zm0-3.1q-0.3 0.1-0.6 0.2q-0.2 0.1-0.5 0.3q-0.2 0.2-0.3 0.5q-0.1 0.3-0.1 0.6q0 0.3 0.1 0.6q0.1 0.3 0.3 0.5q0.3 0.2 0.5 0.3q0.3 0.1 0.6 0.1v0.4q-0.4 0-0.7-0.1q-0.4-0.2-0.6-0.4q-0.3-0.3-0.5-0.7q-0.1-0.3-0.1-0.7q0-0.4 0.1-0.7q0.2-0.4 0.5-0.7q0.2-0.2 0.6-0.4q0.3-0.1 0.7-0.1z" />
		</g>
		<g id="&lt;Group&gt;">
			<path id="&lt;Compound Path&gt;" fill-rule="evenodd" class="s2" d="m144.4 61.5h-0.4v-0.4q0 0 0 0q-0.3 0.2-0.6 0.4q-0.4 0.1-0.8 0.1q-0.4 0-0.7-0.1q-0.4-0.2-0.6-0.4q-0.3-0.3-0.5-0.7q-0.1-0.3-0.1-0.7q0-0.4 0.1-0.7q0.2-0.4 0.5-0.7q0.2-0.3 0.6-0.4q0.3-0.1 0.7-0.1q0.4 0 0.8 0.1q0.3 0.1 0.6 0.4v-2.8h0.4zm-1.8-0.3q0.5 0 0.9-0.2q0.3-0.2 0.5-0.6v-1.5q-0.2-0.3-0.5-0.6q-0.4-0.2-0.9-0.2q-0.3 0-0.6 0.1q-0.3 0.1-0.5 0.4q-0.2 0.2-0.3 0.5q-0.1 0.2-0.1 0.6q0 0.3 0.1 0.6q0.1 0.3 0.3 0.5q0.2 0.2 0.5 0.3q0.3 0.1 0.6 0.1z" />
			<path id="&lt;Compound Path&gt;" class="s3" d="m142.6 61.3q0.5 0 0.9-0.3q0.3-0.2 0.5-0.6v-1.4q-0.2-0.4-0.5-0.6q-0.4-0.3-0.9-0.3q0 0 0 0v-0.3q0.4 0 0.8 0.1q0.3 0.1 0.6 0.4v-2.8h0.4v6h-0.4v-0.4q0 0 0 0q-0.3 0.2-0.6 0.4q-0.4 0.1-0.8 0.1v-0.3zm-0.1-3.2q-0.3 0-0.6 0.2q-0.2 0.1-0.5 0.3q-0.2 0.2-0.3 0.5q-0.1 0.3-0.1 0.6q0 0.3 0.1 0.6q0.1 0.3 0.3 0.5q0.3 0.2 0.5 0.3q0.3 0.1 0.6 0.2v0.3q-0.4 0-0.7-0.1q-0.3-0.2-0.6-0.4q-0.3-0.3-0.4-0.7q-0.2-0.3-0.2-0.7q0-0.4 0.2-0.8q0.1-0.3 0.4-0.6q0.3-0.3 0.6-0.4q0.3-0.1 0.7-0.1z" />
		</g>
		<path id="&lt;Compound Path&gt;" fill-rule="evenodd" class="s4" d="m29.3 7.9c0 3.3-0.1 6.4 0 9.5c0 1.2-0.9 1.2-1.6 1.4q-9 1.9-11.9 10.6c-0.6 1.6-0.7 3.2-0.7 4.9c0 6.9-0.3 13.7 0 20.6c0.4 6.6-4.3 11.7-10.4 12.3c-0.5-0.6-0.3-1.4-0.3-2.1c0-10.6-0.1-21.3 0-31.9c0.1-12.8 9.9-23.4 22.6-25.2c0.6-0.1 1.3-0.1 2.3-0.1zm2.9 0q0.2 0 0.5 0c1.4 0 2.6 0.2 3.7 0.5c9.9 2.2 18.2 10.5 19.9 19.7c2.1 11.4-1.5 20.6-11 27.3c-4.2 3.1-9 4.6-14.3 4.6c-4.3 0-8.6 0-13 0v-10.3c0.5-0.4 1-0.4 1.6-0.4q0.3 0 0.5 0c2.8 0 5.7 0 8.5 0c3.9 0.2 7.5-0.4 10.8-2.7c3.8-2.7 6-6.3 6.4-11c0.6-6.2-1.7-11-6.8-14.4c-2-1.4-4.2-2.3-6.8-2.5zm-9.4 24.3c0.7-3.9 4.1-6.3 7.8-6.3c1.4 0 2.7 0.3 4 1c4 2.1 4.4 6.5 3.8 9.2c-0.8 3.4-4 5.7-7.7 5.8c-2.6 0.1-5.2 0-8.1 0c-0.1-3.5-0.4-6.6 0.2-9.7z" />
	</g>
</svg>