<?xml version="1.0" encoding="iso-8859-1"?>
<!-- Generator: Adobe Illustrator 16.0.0, SVG Export Plug-In . SVG Version: 6.00 Build 0)  -->
<!DOCTYPE svg PUBLIC "-//W3C//DTD SVG 1.1//EN" "http://www.w3.org/Graphics/SVG/1.1/DTD/svg11.dtd">
<svg version="1.1" id="Capa_1" xmlns="http://www.w3.org/2000/svg" xmlns:xlink="http://www.w3.org/1999/xlink" x="0px" y="0px"
	 viewBox="0 0 153.902 73.92" style="enable-background:new 0 0 153.902 73.92;"
	 xml:space="preserve">
<path style="fill-rule:evenodd;clip-rule:evenodd;" d="M4.591,73.92h144.719c2.525,0,4.592-2.066,4.592-4.592V4.591
	c0-2.525-2.066-4.591-4.592-4.591H4.591C2.066,0,0,2.066,0,4.591v64.737C0,71.854,2.066,73.92,4.591,73.92z"/>
<path style="fill-rule:evenodd;clip-rule:evenodd;fill:#FFFFFF;" d="M65.049,23.434h3.007c0.655,0.013,1.256-0.077,1.8-0.268
	c0.544-0.193,1.015-0.479,1.411-0.864c0.717-0.693,1.076-1.608,1.076-2.747c0-1.089-0.374-1.933-1.123-2.533
	c-0.748-0.6-1.797-0.9-3.145-0.9h-3.026V23.434L65.049,23.434z M65.049,29.54h-0.928V15.194h3.954c1.496,0,2.708,0.352,3.637,1.058
	c1.039,0.779,1.559,1.88,1.559,3.303c0,1.398-0.452,2.536-1.354,3.415c-0.471,0.445-1.024,0.789-1.661,1.029
	c-0.637,0.242-1.327,0.362-2.069,0.362h-0.149h-2.987V29.54z"/>
<polygon style="fill-rule:evenodd;clip-rule:evenodd;fill:#FFFFFF;" points="77.372,16.122 77.372,21.541 84.129,21.541 
	84.129,22.469 77.372,22.469 77.372,28.612 84.313,28.612 84.313,29.54 76.444,29.54 76.444,15.194 84.313,15.194 84.313,16.122 "/>
<path style="fill-rule:evenodd;clip-rule:evenodd;fill:#FFFFFF;" d="M88.692,23.434h3.007c0.656,0.025,1.256-0.062,1.8-0.26
	c0.546-0.197,1.016-0.488,1.411-0.872c0.718-0.693,1.076-1.608,1.076-2.747c0-0.78-0.161-1.395-0.482-1.846
	c-0.322-0.452-0.711-0.795-1.169-1.031c-0.458-0.235-0.928-0.386-1.411-0.455c-0.481-0.068-0.884-0.102-1.205-0.102h-3.026V23.434
	L88.692,23.434z M95.561,22.97c-0.693,0.68-1.565,1.113-2.617,1.299l3.841,4.993l-0.741,0.556l-4.195-5.456H91.68h-2.987v5.178
	h-0.928V15.194h3.954c1.521,0,2.746,0.358,3.674,1.076c0.507,0.384,0.889,0.854,1.142,1.41c0.253,0.557,0.381,1.182,0.381,1.875
	C96.915,20.954,96.463,22.091,95.561,22.97z"/>
<polygon style="fill-rule:evenodd;clip-rule:evenodd;fill:#FFFFFF;" points="101.035,16.122 101.035,21.708 107.994,21.708 
	107.994,22.636 101.035,22.636 101.035,29.54 100.107,29.54 100.107,15.194 108.198,15.194 108.198,16.122 "/>
<polygon style="fill-rule:evenodd;clip-rule:evenodd;fill:#FFFFFF;" points="112.355,16.122 112.355,21.541 119.112,21.541 
	119.112,22.469 112.355,22.469 112.355,28.612 119.297,28.612 119.297,29.54 111.428,29.54 111.428,15.194 119.297,15.194 
	119.297,16.122 "/>
<path style="fill-rule:evenodd;clip-rule:evenodd;fill:#FFFFFF;" d="M129.43,29.763c-0.979,0-1.942-0.192-2.896-0.575
	c-0.433-0.198-0.848-0.428-1.244-0.687c-0.395-0.26-0.76-0.563-1.094-0.91c-0.706-0.706-1.237-1.491-1.597-2.357
	c-0.383-0.89-0.575-1.849-0.575-2.877c0-1.027,0.192-1.985,0.575-2.877c0.371-0.903,0.903-1.689,1.597-2.356
	c0.668-0.68,1.446-1.212,2.338-1.597c0.915-0.383,1.881-0.575,2.896-0.575c1.026,0,1.985,0.192,2.877,0.575
	c0.865,0.359,1.651,0.891,2.356,1.597l-0.668,0.649c-0.606-0.618-1.302-1.088-2.088-1.41c-0.786-0.321-1.611-0.482-2.478-0.482
	c-0.891,0-1.732,0.169-2.524,0.51c-0.792,0.34-1.478,0.8-2.061,1.382c-0.581,0.583-1.042,1.269-1.382,2.061
	c-0.341,0.791-0.51,1.632-0.51,2.523s0.169,1.729,0.51,2.515c0.34,0.785,0.801,1.473,1.382,2.061
	c0.583,0.587,1.269,1.051,2.061,1.391c0.792,0.341,1.634,0.511,2.524,0.511c0.866,0,1.691-0.161,2.478-0.482
	c0.786-0.323,1.481-0.792,2.088-1.411l0.668,0.649c-0.705,0.706-1.491,1.237-2.356,1.596
	C131.366,29.57,130.407,29.763,129.43,29.763z"/>
<polygon style="fill-rule:evenodd;clip-rule:evenodd;fill:#FFFFFF;" points="147.842,16.122 142.83,16.122 142.83,29.54 
	141.902,29.54 141.902,16.122 136.911,16.122 136.911,15.194 147.842,15.194 "/>
<polygon style="fill-rule:evenodd;clip-rule:evenodd;fill:#FFFFFF;" points="89.757,33.251 83.942,50.212 81.638,50.212 
	80.3,50.212 76.438,39.57 72.577,50.212 71.173,50.212 68.936,50.212 63.099,33.251 67.048,33.251 70.801,44.156 74.771,33.251 
	78.106,33.251 82.077,44.156 85.83,33.251 "/>
<path style="fill-rule:evenodd;clip-rule:evenodd;fill:#FFFFFF;" d="M99.302,36.499c-0.717,0-1.394,0.14-2.03,0.417
	c-0.637,0.278-1.188,0.651-1.656,1.12c-0.468,0.468-0.841,1.02-1.119,1.656c-0.277,0.636-0.417,1.313-0.417,2.029
	s0.14,1.394,0.417,2.029c0.278,0.637,0.651,1.188,1.119,1.656c0.468,0.469,1.02,0.842,1.656,1.12s1.313,0.417,2.03,0.417
	c0.716,0,1.393-0.139,2.029-0.417s1.188-0.651,1.656-1.12c0.468-0.468,0.841-1.02,1.119-1.656c0.277-0.636,0.417-1.313,0.417-2.029
	s-0.14-1.394-0.417-2.029c-0.278-0.637-0.651-1.188-1.119-1.656c-0.468-0.469-1.02-0.841-1.656-1.12
	C100.694,36.639,100.018,36.499,99.302,36.499L99.302,36.499z M99.302,50.673c-1.215,0-2.379-0.234-3.489-0.702
	c-1.083-0.468-2.032-1.104-2.853-1.908c-0.805-0.819-1.441-1.771-1.909-2.854c-0.469-1.111-0.701-2.274-0.701-3.488
	c0-1.186,0.232-2.348,0.701-3.488c0.234-0.526,0.509-1.028,0.823-1.503c0.313-0.475,0.677-0.917,1.086-1.327
	c0.425-0.425,0.874-0.793,1.35-1.108c0.477-0.315,0.977-0.589,1.503-0.823c1.11-0.468,2.274-0.702,3.489-0.702
	c1.184,0,2.347,0.234,3.488,0.702c0.526,0.234,1.026,0.508,1.503,0.823c0.476,0.314,0.919,0.683,1.326,1.108
	c0.426,0.41,0.795,0.853,1.108,1.327c0.315,0.476,0.59,0.977,0.823,1.503c0.47,1.141,0.703,2.303,0.703,3.488
	c0,1.214-0.233,2.377-0.703,3.488c-0.233,0.527-0.508,1.028-0.823,1.503c-0.313,0.476-0.683,0.926-1.108,1.351
	c-0.407,0.409-0.851,0.771-1.326,1.086c-0.477,0.314-0.977,0.589-1.503,0.822C101.648,50.438,100.485,50.673,99.302,50.673z"/>
<path style="fill-rule:evenodd;clip-rule:evenodd;fill:#FFFFFF;" d="M115.055,42.028h2.524h0.021
	c1.038,0.029,1.844-0.242,2.413-0.813c0.497-0.497,0.747-1.148,0.747-1.953c0-1.521-1.062-2.281-3.182-2.281h-2.524V42.028
	L115.055,42.028z M124.665,50.212h-1.623h-2.94l-3.116-4.454h-1.931v4.454h-3.729V33.251h6.254c0.965,0,1.846,0.122,2.644,0.363
	c0.797,0.241,1.503,0.596,2.116,1.063c0.337,0.278,0.64,0.582,0.912,0.911c0.27,0.33,0.492,0.685,0.669,1.065
	c0.379,0.804,0.57,1.674,0.57,2.61c0,0.894-0.162,1.742-0.483,2.546c-0.307,0.775-0.768,1.463-1.382,2.063
	c-0.483,0.483-1.017,0.863-1.602,1.141L124.665,50.212z"/>
<polygon style="fill-rule:evenodd;clip-rule:evenodd;fill:#FFFFFF;" points="135.898,40.492 145.51,50.212 144.018,50.212 
	140.266,50.212 133.047,42.905 130.984,44.617 130.984,50.212 129.471,50.212 127.255,50.212 127.255,33.251 130.984,33.251 
	130.984,39.746 138.687,33.251 141.581,33.251 144.478,33.251 "/>
<g>
	
		<rect x="64.253" y="55.595" style="fill-rule:evenodd;clip-rule:evenodd;fill:none;stroke:#FFFFFF;stroke-width:0.2775;stroke-linecap:round;stroke-linejoin:round;stroke-miterlimit:22.926;" width="0.381" height="5.883"/>
	<path style="fill-rule:evenodd;clip-rule:evenodd;fill:none;" d="M64.253,55.595h0.381v5.883h-0.381V55.595z"/>
</g>
<g>
	
		<path style="fill-rule:evenodd;clip-rule:evenodd;fill:none;stroke:#FFFFFF;stroke-width:0.2775;stroke-linecap:round;stroke-linejoin:round;stroke-miterlimit:22.926;" d="
		M71.216,58.145c0.146,0.147,0.259,0.315,0.335,0.506s0.114,0.39,0.114,0.598v2.229h-0.38v-2.229c0-0.162-0.031-0.314-0.092-0.456
		c-0.061-0.143-0.144-0.267-0.248-0.374c-0.104-0.105-0.226-0.191-0.365-0.254c-0.14-0.063-0.289-0.095-0.445-0.095
		s-0.305,0.031-0.446,0.095c-0.138,0.063-0.261,0.148-0.365,0.254c-0.104,0.107-0.187,0.231-0.248,0.374
		c-0.061,0.142-0.091,0.294-0.091,0.456v2.229h-0.38v-2.229c0-0.162-0.031-0.314-0.091-0.456c-0.061-0.143-0.144-0.267-0.248-0.374
		c-0.104-0.105-0.226-0.191-0.364-0.254c-0.141-0.063-0.289-0.095-0.446-0.095c-0.157,0-0.306,0.031-0.446,0.095
		c-0.14,0.063-0.262,0.148-0.365,0.254c-0.104,0.107-0.187,0.231-0.248,0.374c-0.06,0.142-0.091,0.294-0.091,0.456v2.229h-0.381
		v-2.229v-1.424h0.381v0.396c0.031-0.03,0.053-0.056,0.068-0.076c0.147-0.146,0.312-0.261,0.495-0.338
		c0.183-0.079,0.378-0.119,0.586-0.119c0.208,0,0.403,0.04,0.586,0.119c0.183,0.077,0.346,0.191,0.494,0.338
		c0.055,0.057,0.103,0.113,0.145,0.172c0.041,0.058,0.078,0.117,0.114,0.178c0.036-0.061,0.074-0.12,0.114-0.178
		c0.041-0.059,0.089-0.115,0.145-0.172c0.147-0.146,0.312-0.261,0.496-0.338c0.182-0.079,0.377-0.119,0.585-0.119
		s0.403,0.04,0.585,0.119C70.904,57.884,71.069,57.998,71.216,58.145z"/>
	<path style="fill-rule:evenodd;clip-rule:evenodd;fill:none;" d="M71.216,58.145c0.146,0.147,0.259,0.315,0.335,0.506
		s0.114,0.39,0.114,0.598v2.229h-0.38v-2.229c0-0.162-0.031-0.314-0.092-0.456c-0.061-0.143-0.144-0.267-0.248-0.374
		c-0.104-0.105-0.226-0.191-0.365-0.254c-0.14-0.063-0.289-0.095-0.445-0.095s-0.305,0.031-0.446,0.095
		c-0.138,0.063-0.261,0.148-0.365,0.254c-0.104,0.107-0.187,0.231-0.248,0.374c-0.061,0.142-0.091,0.294-0.091,0.456v2.229h-0.38
		v-2.229c0-0.162-0.031-0.314-0.091-0.456c-0.061-0.143-0.144-0.267-0.248-0.374c-0.104-0.105-0.226-0.191-0.364-0.254
		c-0.141-0.063-0.289-0.095-0.446-0.095c-0.157,0-0.306,0.031-0.446,0.095c-0.14,0.063-0.262,0.148-0.365,0.254
		c-0.104,0.107-0.187,0.231-0.248,0.374c-0.06,0.142-0.091,0.294-0.091,0.456v2.229h-0.381v-2.229v-1.424h0.381v0.396
		c0.031-0.03,0.053-0.056,0.068-0.076c0.147-0.146,0.312-0.261,0.495-0.338c0.183-0.079,0.378-0.119,0.586-0.119
		c0.208,0,0.403,0.04,0.586,0.119c0.183,0.077,0.346,0.191,0.494,0.338c0.055,0.057,0.103,0.113,0.145,0.172
		c0.041,0.058,0.078,0.117,0.114,0.178c0.036-0.061,0.074-0.12,0.114-0.178c0.041-0.059,0.089-0.115,0.145-0.172
		c0.147-0.146,0.312-0.261,0.496-0.338c0.182-0.079,0.377-0.119,0.585-0.119s0.403,0.04,0.585,0.119
		C70.904,57.884,71.069,57.998,71.216,58.145z"/>
</g>
<g>
	
		<path style="fill-rule:evenodd;clip-rule:evenodd;fill:none;stroke:#FFFFFF;stroke-width:0.2775;stroke-linecap:round;stroke-linejoin:round;stroke-miterlimit:22.926;" d="
		M74.655,61.219c0.218,0,0.421-0.04,0.613-0.121c0.189-0.081,0.356-0.193,0.497-0.335c0.143-0.143,0.254-0.308,0.335-0.498
		c0.082-0.191,0.123-0.393,0.123-0.605c0-0.218-0.041-0.423-0.123-0.612c-0.081-0.19-0.192-0.356-0.335-0.499
		c-0.141-0.141-0.308-0.254-0.497-0.335c-0.192-0.081-0.395-0.122-0.613-0.122c-0.299,0-0.571,0.077-0.814,0.229
		c-0.243,0.151-0.431,0.352-0.563,0.601v1.469c0.132,0.248,0.32,0.449,0.563,0.602C74.084,61.143,74.356,61.219,74.655,61.219
		L74.655,61.219z M72.898,57.825h0.38v0.464c0-0.005,0.002-0.008,0.007-0.008c0.184-0.183,0.392-0.323,0.628-0.422
		c0.237-0.099,0.483-0.148,0.742-0.148c0.264,0,0.514,0.05,0.75,0.148c0.236,0.099,0.444,0.239,0.628,0.422
		c0.182,0.184,0.323,0.392,0.421,0.629c0.099,0.235,0.148,0.485,0.148,0.749c0,0.259-0.049,0.506-0.148,0.741
		c-0.098,0.237-0.239,0.446-0.421,0.629c-0.184,0.183-0.393,0.323-0.628,0.422c-0.236,0.099-0.486,0.149-0.75,0.149
		c-0.259,0-0.505-0.051-0.742-0.149c-0.236-0.099-0.444-0.239-0.628-0.422l-0.007-0.009v2.186h-0.38V57.825z"/>
	<path style="fill-rule:evenodd;clip-rule:evenodd;fill:none;" d="M74.75,61.217c0.183-0.011,0.354-0.05,0.518-0.119
		c0.189-0.081,0.356-0.193,0.497-0.335c0.143-0.143,0.254-0.308,0.335-0.498c0.082-0.191,0.123-0.393,0.123-0.605
		c0-0.218-0.041-0.423-0.123-0.612c-0.081-0.19-0.192-0.356-0.335-0.499c-0.141-0.141-0.308-0.254-0.497-0.335
		c-0.164-0.068-0.335-0.108-0.518-0.119v-0.381c0.229,0.011,0.447,0.06,0.655,0.146c0.236,0.099,0.444,0.239,0.628,0.422
		c0.182,0.184,0.323,0.392,0.421,0.629c0.099,0.235,0.148,0.485,0.148,0.749c0,0.259-0.049,0.506-0.148,0.741
		c-0.098,0.237-0.239,0.446-0.421,0.629c-0.184,0.183-0.393,0.323-0.628,0.422c-0.208,0.087-0.426,0.136-0.655,0.147V61.217z
		 M74.655,61.219c0.032,0,0.064-0.001,0.095-0.002v0.382l-0.095,0.002c-0.259,0-0.505-0.051-0.742-0.149
		c-0.236-0.099-0.444-0.239-0.628-0.422l-0.007-0.009v2.186h-0.38v-5.381h0.38v0.464c0-0.005,0.002-0.008,0.007-0.008
		c0.184-0.183,0.392-0.323,0.628-0.422c0.237-0.099,0.483-0.148,0.742-0.148l0.095,0.002v0.381
		c-0.031-0.002-0.063-0.003-0.095-0.003c-0.299,0-0.571,0.077-0.814,0.229c-0.243,0.151-0.431,0.352-0.563,0.601v1.469
		c0.132,0.248,0.32,0.449,0.563,0.602C74.084,61.143,74.356,61.219,74.655,61.219z"/>
</g>
<g>
	
		<path style="fill-rule:evenodd;clip-rule:evenodd;fill:none;stroke:#FFFFFF;stroke-width:0.2775;stroke-linecap:round;stroke-linejoin:round;stroke-miterlimit:22.926;" d="
		M79.298,57.711c0.34,0,0.636,0.084,0.89,0.252l-0.212,0.312c-0.184-0.122-0.409-0.183-0.678-0.183
		c-0.543,0-0.915,0.241-1.119,0.723c-0.04,0.091-0.079,0.218-0.118,0.377c-0.037,0.16-0.057,0.359-0.057,0.597v1.683h-0.008v0.008
		h-0.38v-3.653h0.38v0.532C78.291,57.927,78.724,57.711,79.298,57.711z"/>
	<path style="fill-rule:evenodd;clip-rule:evenodd;fill:none;" d="M79.298,57.711c0.34,0,0.636,0.084,0.89,0.252l-0.212,0.312
		c-0.184-0.122-0.409-0.183-0.678-0.183c-0.543,0-0.915,0.241-1.119,0.723c-0.04,0.091-0.079,0.218-0.118,0.377
		c-0.037,0.16-0.057,0.359-0.057,0.597v1.683h-0.008v0.008h-0.38v-3.653h0.38v0.532C78.291,57.927,78.724,57.711,79.298,57.711z"/>
</g>
<g>
	
		<path style="fill-rule:evenodd;clip-rule:evenodd;fill:none;stroke:#FFFFFF;stroke-width:0.2775;stroke-linecap:round;stroke-linejoin:round;stroke-miterlimit:22.926;" d="
		M81.139,59.469h3.121c-0.025-0.192-0.083-0.374-0.172-0.544s-0.202-0.317-0.343-0.441c-0.14-0.124-0.299-0.222-0.479-0.293
		s-0.369-0.106-0.566-0.106c-0.203,0-0.393,0.035-0.571,0.106c-0.177,0.071-0.336,0.169-0.476,0.293
		c-0.139,0.124-0.255,0.271-0.346,0.441C81.215,59.095,81.159,59.276,81.139,59.469L81.139,59.469z M82.699,61.607
		c-0.264,0-0.514-0.05-0.75-0.148c-0.235-0.099-0.444-0.24-0.629-0.422c-0.187-0.188-0.33-0.399-0.429-0.636
		c-0.099-0.235-0.148-0.484-0.148-0.742c0-0.264,0.05-0.514,0.148-0.749c0.099-0.236,0.242-0.448,0.429-0.636
		c0.185-0.183,0.394-0.323,0.629-0.423c0.236-0.099,0.486-0.147,0.75-0.147c0.269,0,0.521,0.05,0.756,0.151
		c0.236,0.102,0.443,0.241,0.621,0.419c0.177,0.178,0.318,0.385,0.419,0.624c0.102,0.238,0.153,0.491,0.153,0.761v0.19h-3.51
		c0.025,0.192,0.084,0.373,0.176,0.54c0.091,0.168,0.206,0.313,0.342,0.438c0.137,0.124,0.296,0.221,0.476,0.293
		c0.181,0.071,0.369,0.106,0.567,0.106c0.279,0,0.541-0.07,0.784-0.21c0.242-0.14,0.436-0.331,0.578-0.574l0.326,0.19
		c-0.167,0.289-0.399,0.524-0.7,0.707C83.389,61.518,83.059,61.607,82.699,61.607z"/>
	<path style="fill-rule:evenodd;clip-rule:evenodd;fill:none;" d="M82.699,59.469h1.561c-0.025-0.192-0.083-0.374-0.172-0.544
		s-0.202-0.317-0.343-0.441c-0.14-0.124-0.299-0.222-0.479-0.293s-0.369-0.106-0.566-0.106v-0.38c0.269,0,0.521,0.05,0.756,0.151
		c0.236,0.102,0.443,0.241,0.621,0.419c0.177,0.178,0.318,0.385,0.419,0.624c0.102,0.238,0.153,0.491,0.153,0.761v0.19h-1.949
		V59.469L82.699,59.469z M82.699,61.607v-0.38c0.279,0,0.541-0.07,0.784-0.21c0.242-0.14,0.436-0.331,0.578-0.574l0.326,0.19
		c-0.167,0.289-0.399,0.524-0.7,0.707C83.389,61.518,83.06,61.607,82.699,61.607z M81.139,59.469h1.561v0.381h-1.561
		c0.025,0.192,0.084,0.373,0.176,0.54c0.091,0.168,0.206,0.313,0.342,0.438c0.137,0.124,0.296,0.221,0.476,0.293
		c0.181,0.071,0.369,0.106,0.567,0.106l0,0v0.38l0,0c-0.264,0-0.514-0.05-0.75-0.148c-0.235-0.099-0.444-0.24-0.629-0.422
		c-0.187-0.188-0.33-0.399-0.429-0.636c-0.099-0.235-0.148-0.484-0.148-0.742c0-0.264,0.05-0.514,0.148-0.749
		c0.099-0.236,0.242-0.448,0.429-0.636c0.185-0.183,0.394-0.323,0.629-0.423c0.236-0.099,0.486-0.147,0.75-0.147l0,0v0.38l0,0
		c-0.203,0-0.393,0.035-0.571,0.106c-0.177,0.071-0.336,0.169-0.476,0.293c-0.139,0.124-0.255,0.271-0.346,0.441
		C81.215,59.095,81.159,59.276,81.139,59.469z"/>
</g>
<g>
	
		<path style="fill-rule:evenodd;clip-rule:evenodd;fill:none;stroke:#FFFFFF;stroke-width:0.2775;stroke-linecap:round;stroke-linejoin:round;stroke-miterlimit:22.926;" d="
		M86.969,61.615c-0.016,0-0.03-0.002-0.046-0.005c-0.015-0.002-0.027-0.003-0.038-0.003c-0.137,0-0.273-0.019-0.411-0.058
		c-0.137-0.037-0.264-0.088-0.381-0.152c-0.116-0.063-0.222-0.138-0.315-0.224c-0.094-0.087-0.166-0.181-0.216-0.282l0.343-0.175
		c0.035,0.071,0.086,0.137,0.155,0.198c0.068,0.061,0.146,0.114,0.236,0.16c0.089,0.045,0.185,0.082,0.289,0.11
		c0.104,0.028,0.205,0.041,0.308,0.041H86.9h0.008c0.085,0.01,0.189,0.003,0.313-0.022c0.121-0.025,0.239-0.068,0.354-0.129
		c0.114-0.063,0.213-0.142,0.296-0.24c0.084-0.1,0.131-0.222,0.142-0.369c0.016-0.168-0.028-0.31-0.13-0.426
		c-0.087-0.092-0.21-0.164-0.37-0.218c-0.16-0.053-0.342-0.08-0.551-0.08c-0.055,0-0.129-0.003-0.22-0.011
		c-0.093-0.007-0.19-0.022-0.294-0.046c-0.104-0.022-0.207-0.058-0.308-0.106c-0.102-0.048-0.193-0.116-0.274-0.201
		c-0.168-0.183-0.243-0.403-0.229-0.662c0.016-0.264,0.111-0.485,0.289-0.662c0.147-0.152,0.345-0.256,0.594-0.313
		c0.147-0.035,0.302-0.05,0.461-0.042c0.16,0.008,0.313,0.035,0.46,0.08c0.162,0.051,0.304,0.119,0.423,0.206
		c0.119,0.086,0.211,0.188,0.277,0.305l-0.335,0.183c-0.081-0.147-0.24-0.257-0.479-0.328c-0.116-0.04-0.236-0.063-0.361-0.067
		c-0.124-0.006-0.245,0.004-0.361,0.029c-0.061,0.016-0.126,0.038-0.194,0.068c-0.068,0.031-0.131,0.07-0.186,0.118
		c-0.057,0.049-0.104,0.11-0.142,0.183c-0.038,0.073-0.059,0.161-0.064,0.264c-0.01,0.161,0.03,0.286,0.122,0.372
		c0.055,0.061,0.124,0.107,0.206,0.141c0.081,0.034,0.161,0.057,0.239,0.072c0.078,0.015,0.151,0.025,0.22,0.03
		s0.121,0.008,0.156,0.008c0.265,0,0.499,0.037,0.704,0.109c0.205,0.075,0.369,0.178,0.49,0.31c0.184,0.197,0.262,0.437,0.236,0.715
		c-0.015,0.203-0.083,0.388-0.205,0.556c-0.097,0.138-0.231,0.251-0.403,0.343c-0.148,0.08-0.293,0.139-0.434,0.171
		C87.207,61.599,87.08,61.615,86.969,61.615z"/>
	<path style="fill-rule:evenodd;clip-rule:evenodd;fill:none;" d="M86.969,61.615c-0.016,0-0.03-0.002-0.046-0.005
		c-0.015-0.002-0.027-0.003-0.038-0.003c-0.137,0-0.273-0.019-0.411-0.058c-0.137-0.037-0.264-0.088-0.381-0.152
		c-0.116-0.063-0.222-0.138-0.315-0.224c-0.094-0.087-0.166-0.181-0.216-0.282l0.343-0.175c0.035,0.071,0.086,0.137,0.155,0.198
		c0.068,0.061,0.146,0.114,0.236,0.16c0.089,0.045,0.185,0.082,0.289,0.11c0.104,0.028,0.205,0.041,0.308,0.041H86.9h0.008
		c0.085,0.01,0.189,0.003,0.313-0.022c0.121-0.025,0.239-0.068,0.354-0.129c0.114-0.063,0.213-0.142,0.296-0.24
		c0.084-0.1,0.131-0.222,0.142-0.369c0.016-0.168-0.028-0.31-0.13-0.426c-0.087-0.092-0.21-0.164-0.37-0.218
		c-0.16-0.053-0.342-0.08-0.551-0.08c-0.055,0-0.129-0.003-0.22-0.011c-0.093-0.007-0.19-0.022-0.294-0.046
		c-0.104-0.022-0.207-0.058-0.308-0.106c-0.102-0.048-0.193-0.116-0.274-0.201c-0.168-0.183-0.243-0.403-0.229-0.662
		c0.016-0.264,0.111-0.485,0.289-0.662c0.147-0.152,0.345-0.256,0.594-0.313c0.147-0.035,0.302-0.05,0.461-0.042
		c0.16,0.008,0.313,0.035,0.46,0.08c0.162,0.051,0.304,0.119,0.423,0.206c0.119,0.086,0.211,0.188,0.277,0.305l-0.335,0.183
		c-0.081-0.147-0.24-0.257-0.479-0.328c-0.116-0.04-0.236-0.063-0.361-0.067c-0.124-0.006-0.245,0.004-0.361,0.029
		c-0.061,0.016-0.126,0.038-0.194,0.068c-0.068,0.031-0.131,0.07-0.186,0.118c-0.057,0.049-0.104,0.11-0.142,0.183
		c-0.038,0.073-0.059,0.161-0.064,0.264c-0.01,0.161,0.03,0.286,0.122,0.372c0.055,0.061,0.124,0.107,0.206,0.141
		c0.081,0.034,0.161,0.057,0.239,0.072c0.078,0.015,0.151,0.025,0.22,0.03s0.121,0.008,0.156,0.008c0.265,0,0.499,0.037,0.704,0.109
		c0.205,0.075,0.369,0.178,0.49,0.31c0.184,0.197,0.262,0.437,0.236,0.715c-0.015,0.203-0.083,0.388-0.205,0.556
		c-0.097,0.138-0.231,0.251-0.403,0.343c-0.148,0.08-0.293,0.139-0.434,0.171C87.207,61.599,87.08,61.615,86.969,61.615z"/>
</g>
<g>
	
		<path style="fill-rule:evenodd;clip-rule:evenodd;fill:none;stroke:#FFFFFF;stroke-width:0.2775;stroke-linecap:round;stroke-linejoin:round;stroke-miterlimit:22.926;" d="
		M91.261,58.084c-0.219,0-0.423,0.04-0.613,0.121c-0.189,0.082-0.355,0.193-0.497,0.336c-0.143,0.142-0.254,0.307-0.336,0.498
		c-0.081,0.19-0.121,0.395-0.121,0.612s0.04,0.422,0.121,0.612c0.082,0.19,0.193,0.357,0.336,0.499
		c0.142,0.142,0.308,0.254,0.497,0.335c0.19,0.081,0.395,0.121,0.613,0.121s0.422-0.04,0.613-0.121
		c0.189-0.081,0.356-0.193,0.498-0.335c0.143-0.142,0.254-0.309,0.335-0.499c0.08-0.19,0.122-0.395,0.122-0.612
		s-0.042-0.422-0.122-0.612c-0.081-0.191-0.192-0.356-0.335-0.498c-0.142-0.143-0.309-0.254-0.498-0.336
		C91.683,58.124,91.479,58.084,91.261,58.084L91.261,58.084z M91.261,61.6c-0.259,0-0.507-0.049-0.745-0.148
		c-0.238-0.099-0.449-0.239-0.633-0.422c-0.182-0.184-0.323-0.394-0.422-0.632c-0.1-0.238-0.147-0.487-0.147-0.746
		s0.048-0.507,0.147-0.746c0.099-0.238,0.24-0.449,0.422-0.631c0.184-0.183,0.395-0.323,0.633-0.423
		c0.238-0.099,0.486-0.149,0.745-0.149s0.506,0.051,0.745,0.149c0.239,0.1,0.449,0.24,0.633,0.423
		c0.183,0.182,0.323,0.393,0.423,0.631c0.099,0.239,0.146,0.487,0.146,0.746s-0.048,0.508-0.146,0.746
		c-0.1,0.238-0.24,0.448-0.423,0.632c-0.184,0.183-0.394,0.323-0.633,0.422C91.767,61.551,91.52,61.6,91.261,61.6z"/>
	<path style="fill-rule:evenodd;clip-rule:evenodd;fill:none;" d="M91.261,61.219c0.219,0,0.422-0.04,0.613-0.121
		c0.189-0.081,0.356-0.193,0.498-0.335c0.143-0.142,0.254-0.309,0.335-0.499c0.08-0.19,0.122-0.395,0.122-0.612
		s-0.042-0.422-0.122-0.612c-0.081-0.191-0.192-0.356-0.335-0.498c-0.142-0.143-0.309-0.254-0.498-0.336
		c-0.191-0.081-0.395-0.121-0.613-0.121v-0.382c0.259,0,0.506,0.051,0.745,0.149c0.239,0.1,0.449,0.24,0.633,0.423
		c0.183,0.182,0.323,0.393,0.423,0.631c0.099,0.239,0.146,0.487,0.146,0.746s-0.048,0.508-0.146,0.746
		c-0.1,0.238-0.24,0.448-0.423,0.632c-0.184,0.183-0.394,0.323-0.633,0.422c-0.239,0.1-0.486,0.148-0.745,0.148V61.219z
		 M91.261,58.084c-0.219,0-0.423,0.04-0.613,0.121c-0.189,0.082-0.355,0.193-0.497,0.336c-0.143,0.142-0.254,0.307-0.336,0.498
		c-0.081,0.19-0.121,0.395-0.121,0.612s0.04,0.422,0.121,0.612c0.082,0.19,0.193,0.357,0.336,0.499
		c0.142,0.142,0.308,0.254,0.497,0.335c0.19,0.081,0.395,0.121,0.613,0.121V61.6c-0.259,0-0.507-0.049-0.745-0.148
		c-0.238-0.099-0.449-0.239-0.633-0.422c-0.182-0.184-0.323-0.394-0.422-0.632c-0.1-0.238-0.147-0.487-0.147-0.746
		s0.048-0.507,0.147-0.746c0.099-0.238,0.24-0.449,0.422-0.631c0.184-0.183,0.395-0.323,0.633-0.423
		c0.238-0.099,0.486-0.149,0.745-0.149V58.084z"/>
</g>
<g>
	
		<path style="fill-rule:evenodd;clip-rule:evenodd;fill:none;stroke:#FFFFFF;stroke-width:0.2775;stroke-linecap:round;stroke-linejoin:round;stroke-miterlimit:22.926;" d="
		M95.461,61.615c-0.016,0-0.03-0.002-0.046-0.005c-0.014-0.002-0.027-0.003-0.038-0.003c-0.137,0-0.273-0.019-0.411-0.058
		c-0.137-0.037-0.264-0.088-0.38-0.152c-0.116-0.063-0.223-0.138-0.316-0.224c-0.094-0.087-0.166-0.181-0.216-0.282l0.343-0.175
		c0.035,0.071,0.086,0.137,0.155,0.198c0.068,0.061,0.146,0.114,0.236,0.16c0.088,0.045,0.185,0.082,0.289,0.11
		c0.104,0.028,0.205,0.041,0.308,0.041h0.009h0.008c0.084,0.01,0.189,0.003,0.312-0.022c0.121-0.025,0.239-0.068,0.354-0.129
		c0.114-0.063,0.213-0.142,0.296-0.24c0.084-0.1,0.131-0.222,0.142-0.369c0.016-0.168-0.028-0.31-0.13-0.426
		c-0.087-0.092-0.21-0.164-0.369-0.218c-0.16-0.053-0.343-0.08-0.552-0.08c-0.056,0-0.129-0.003-0.22-0.011
		c-0.093-0.007-0.19-0.022-0.294-0.046c-0.104-0.022-0.206-0.058-0.308-0.106c-0.102-0.048-0.193-0.116-0.274-0.201
		c-0.167-0.183-0.243-0.403-0.228-0.662c0.015-0.264,0.11-0.485,0.288-0.662c0.147-0.152,0.345-0.256,0.594-0.313
		c0.147-0.035,0.302-0.05,0.461-0.042c0.16,0.008,0.313,0.035,0.46,0.08c0.162,0.051,0.304,0.119,0.423,0.206
		c0.119,0.086,0.211,0.188,0.277,0.305l-0.335,0.183c-0.081-0.147-0.24-0.257-0.479-0.328c-0.116-0.04-0.236-0.063-0.361-0.067
		c-0.125-0.006-0.245,0.004-0.361,0.029c-0.061,0.016-0.126,0.038-0.194,0.068c-0.068,0.031-0.131,0.07-0.186,0.118
		c-0.056,0.049-0.104,0.11-0.142,0.183c-0.037,0.073-0.059,0.161-0.064,0.264c-0.01,0.161,0.03,0.286,0.122,0.372
		c0.055,0.061,0.124,0.107,0.206,0.141c0.081,0.034,0.16,0.057,0.239,0.072c0.078,0.015,0.151,0.025,0.22,0.03
		s0.121,0.008,0.156,0.008c0.265,0,0.499,0.037,0.704,0.109c0.205,0.075,0.369,0.178,0.49,0.31c0.184,0.197,0.262,0.437,0.236,0.715
		c-0.015,0.203-0.084,0.388-0.205,0.556c-0.097,0.138-0.231,0.251-0.402,0.343c-0.148,0.08-0.293,0.139-0.435,0.171
		C95.699,61.599,95.572,61.615,95.461,61.615z"/>
	<path style="fill-rule:evenodd;clip-rule:evenodd;fill:none;" d="M95.461,61.615c-0.016,0-0.03-0.002-0.046-0.005
		c-0.014-0.002-0.027-0.003-0.038-0.003c-0.137,0-0.273-0.019-0.411-0.058c-0.137-0.037-0.264-0.088-0.38-0.152
		c-0.116-0.063-0.223-0.138-0.316-0.224c-0.094-0.087-0.166-0.181-0.216-0.282l0.343-0.175c0.035,0.071,0.086,0.137,0.155,0.198
		c0.068,0.061,0.146,0.114,0.236,0.16c0.088,0.045,0.185,0.082,0.289,0.11c0.104,0.028,0.205,0.041,0.308,0.041h0.009h0.008
		c0.084,0.01,0.189,0.003,0.312-0.022c0.121-0.025,0.239-0.068,0.354-0.129c0.114-0.063,0.213-0.142,0.296-0.24
		c0.084-0.1,0.131-0.222,0.142-0.369c0.016-0.168-0.028-0.31-0.13-0.426c-0.087-0.092-0.21-0.164-0.369-0.218
		c-0.16-0.053-0.343-0.08-0.552-0.08c-0.056,0-0.129-0.003-0.22-0.011c-0.093-0.007-0.19-0.022-0.294-0.046
		c-0.104-0.022-0.206-0.058-0.308-0.106c-0.102-0.048-0.193-0.116-0.274-0.201c-0.167-0.183-0.243-0.403-0.228-0.662
		c0.015-0.264,0.11-0.485,0.288-0.662c0.147-0.152,0.345-0.256,0.594-0.313c0.147-0.035,0.302-0.05,0.461-0.042
		c0.16,0.008,0.313,0.035,0.46,0.08c0.162,0.051,0.304,0.119,0.423,0.206c0.119,0.086,0.211,0.188,0.277,0.305l-0.335,0.183
		c-0.081-0.147-0.24-0.257-0.479-0.328c-0.116-0.04-0.236-0.063-0.361-0.067c-0.125-0.006-0.245,0.004-0.361,0.029
		c-0.061,0.016-0.126,0.038-0.194,0.068c-0.068,0.031-0.131,0.07-0.186,0.118c-0.056,0.049-0.104,0.11-0.142,0.183
		c-0.037,0.073-0.059,0.161-0.064,0.264c-0.01,0.161,0.03,0.286,0.122,0.372c0.055,0.061,0.124,0.107,0.206,0.141
		c0.081,0.034,0.16,0.057,0.239,0.072c0.078,0.015,0.151,0.025,0.22,0.03s0.121,0.008,0.156,0.008c0.265,0,0.499,0.037,0.704,0.109
		c0.205,0.075,0.369,0.178,0.49,0.31c0.184,0.197,0.262,0.437,0.236,0.715c-0.015,0.203-0.084,0.388-0.205,0.556
		c-0.097,0.138-0.231,0.251-0.402,0.343c-0.148,0.08-0.293,0.139-0.435,0.171C95.699,61.599,95.572,61.615,95.461,61.615z"/>
</g>
<g>
	
		<polygon style="fill-rule:evenodd;clip-rule:evenodd;fill:none;stroke:#FFFFFF;stroke-width:0.2775;stroke-linecap:round;stroke-linejoin:round;stroke-miterlimit:22.926;" points="
		104.548,57.939 101.602,63.282 101.268,63.1 102.166,61.479 100.339,57.939 100.675,57.764 102.386,61.075 104.212,57.757 	"/>
	<path style="fill-rule:evenodd;clip-rule:evenodd;fill:none;" d="M104.548,57.939l-2.946,5.343l-0.334-0.183l0.898-1.621
		l-1.827-3.539l0.336-0.176l1.711,3.312l1.826-3.318L104.548,57.939z"/>
</g>
<g>
	
		<path style="fill-rule:evenodd;clip-rule:evenodd;fill:none;stroke:#FFFFFF;stroke-width:0.2775;stroke-linecap:round;stroke-linejoin:round;stroke-miterlimit:22.926;" d="
		M108.513,58.975h1.231c0.27,0.005,0.516-0.032,0.739-0.11c0.223-0.079,0.415-0.197,0.578-0.354
		c0.294-0.285,0.441-0.659,0.441-1.128c0-0.446-0.154-0.792-0.46-1.038c-0.308-0.246-0.737-0.368-1.291-0.368h-1.239V58.975
		L108.513,58.975z M108.513,61.478h-0.381v-5.883h1.62c0.614,0,1.111,0.146,1.492,0.435c0.427,0.319,0.639,0.771,0.639,1.354
		c0,0.574-0.185,1.041-0.555,1.401c-0.193,0.183-0.42,0.323-0.681,0.422c-0.262,0.1-0.545,0.148-0.85,0.148h-0.062h-1.224V61.478z"
		/>
	<path style="fill-rule:evenodd;clip-rule:evenodd;fill:none;" d="M110.008,58.966c0.169-0.016,0.326-0.05,0.476-0.102
		c0.223-0.079,0.415-0.197,0.578-0.354c0.294-0.285,0.441-0.659,0.441-1.128c0-0.446-0.154-0.792-0.46-1.038
		c-0.258-0.207-0.604-0.326-1.035-0.359v-0.382c0.498,0.036,0.909,0.178,1.236,0.426c0.427,0.319,0.639,0.771,0.639,1.354
		c0,0.574-0.185,1.041-0.555,1.401c-0.193,0.183-0.42,0.323-0.681,0.422c-0.201,0.076-0.414,0.123-0.64,0.141V58.966z
		 M108.513,58.975h1.231c0.091,0.001,0.179-0.002,0.264-0.009v0.381c-0.068,0.005-0.139,0.008-0.21,0.008h-0.062h-1.224v2.123
		h-0.381v-5.883h1.62c0.088,0,0.173,0.003,0.256,0.009v0.382c-0.082-0.006-0.167-0.009-0.256-0.009h-1.239V58.975z"/>
</g>
<g>
	
		<path style="fill-rule:evenodd;clip-rule:evenodd;fill:none;stroke:#FFFFFF;stroke-width:0.2775;stroke-linecap:round;stroke-linejoin:round;stroke-miterlimit:22.926;" d="
		M116.488,61.478h-0.382v-0.448c-0.02,0.025-0.039,0.048-0.057,0.067c-0.019,0.021-0.036,0.041-0.058,0.062
		c-0.163,0.163-0.345,0.285-0.548,0.369c-0.203,0.083-0.419,0.126-0.646,0.126h-0.008c-0.461,0-0.856-0.165-1.187-0.495
		c-0.163-0.161-0.286-0.343-0.37-0.544c-0.083-0.199-0.125-0.414-0.125-0.643v-2.146h0.382v2.146c0,0.177,0.033,0.346,0.102,0.506
		c0.068,0.159,0.161,0.298,0.277,0.414c0.116,0.118,0.256,0.209,0.416,0.278c0.159,0.068,0.328,0.103,0.505,0.103h0.008
		c0.183,0,0.353-0.034,0.51-0.103c0.158-0.069,0.296-0.16,0.415-0.278c0.119-0.116,0.214-0.255,0.281-0.414
		c0.068-0.16,0.103-0.329,0.103-0.506v-2.146h0.382V61.478z"/>
	<path style="fill-rule:evenodd;clip-rule:evenodd;fill:none;" d="M116.488,61.478h-0.382v-0.448
		c-0.02,0.025-0.039,0.048-0.057,0.067c-0.019,0.021-0.036,0.041-0.058,0.062c-0.163,0.163-0.345,0.285-0.548,0.369
		c-0.203,0.083-0.419,0.126-0.646,0.126h-0.008c-0.461,0-0.856-0.165-1.187-0.495c-0.163-0.161-0.286-0.343-0.37-0.544
		c-0.083-0.199-0.125-0.414-0.125-0.643v-2.146h0.382v2.146c0,0.177,0.033,0.346,0.102,0.506c0.068,0.159,0.161,0.298,0.277,0.414
		c0.116,0.118,0.256,0.209,0.416,0.278c0.159,0.068,0.328,0.103,0.505,0.103h0.008c0.183,0,0.353-0.034,0.51-0.103
		c0.158-0.069,0.296-0.16,0.415-0.278c0.119-0.116,0.214-0.255,0.281-0.414c0.068-0.16,0.103-0.329,0.103-0.506v-2.146h0.382V61.478
		z"/>
</g>
<g>
	
		<path style="fill-rule:evenodd;clip-rule:evenodd;fill:none;stroke:#FFFFFF;stroke-width:0.2775;stroke-linecap:round;stroke-linejoin:round;stroke-miterlimit:22.926;" d="
		M119.471,61.212c0.213,0,0.414-0.041,0.604-0.121c0.19-0.081,0.356-0.194,0.498-0.336c0.143-0.142,0.254-0.307,0.335-0.494
		c0.082-0.188,0.122-0.389,0.122-0.602s-0.04-0.415-0.122-0.604c-0.081-0.19-0.192-0.356-0.335-0.499
		c-0.142-0.142-0.308-0.254-0.498-0.335s-0.392-0.122-0.604-0.122c-0.3,0-0.571,0.078-0.814,0.232
		c-0.244,0.155-0.432,0.356-0.563,0.605v1.438c0.132,0.25,0.319,0.45,0.563,0.605C118.899,61.135,119.171,61.212,119.471,61.212
		L119.471,61.212z M117.713,55.451h0.38v2.846l0.008-0.007c0.187-0.184,0.397-0.324,0.631-0.423c0.234-0.1,0.479-0.148,0.739-0.148
		c0.259,0,0.506,0.049,0.741,0.148c0.236,0.099,0.445,0.239,0.628,0.423c0.183,0.183,0.324,0.392,0.423,0.627
		s0.149,0.483,0.149,0.742s-0.051,0.505-0.149,0.738c-0.099,0.232-0.24,0.443-0.423,0.632c-0.183,0.183-0.392,0.322-0.628,0.418
		c-0.235,0.097-0.482,0.146-0.741,0.146c-0.26,0-0.505-0.049-0.739-0.146c-0.233-0.096-0.444-0.235-0.631-0.418
		c0-0.006-0.003-0.011-0.008-0.016v0.464h-0.38V55.451z"/>
	<path style="fill-rule:evenodd;clip-rule:evenodd;fill:none;" d="M119.562,61.209c0.18-0.01,0.351-0.05,0.514-0.118
		c0.19-0.081,0.356-0.194,0.498-0.336c0.143-0.142,0.254-0.307,0.335-0.494c0.082-0.188,0.122-0.389,0.122-0.602
		s-0.04-0.415-0.122-0.604c-0.081-0.19-0.192-0.356-0.335-0.499c-0.142-0.142-0.308-0.254-0.498-0.335
		c-0.163-0.069-0.334-0.109-0.514-0.119v-0.381c0.226,0.011,0.442,0.059,0.65,0.146c0.236,0.099,0.445,0.239,0.628,0.423
		c0.183,0.183,0.324,0.392,0.423,0.627s0.149,0.483,0.149,0.742s-0.051,0.505-0.149,0.738c-0.099,0.232-0.24,0.443-0.423,0.632
		c-0.183,0.183-0.392,0.322-0.628,0.418c-0.208,0.085-0.425,0.133-0.65,0.144V61.209z M119.471,61.212
		c0.03,0,0.061-0.001,0.091-0.003v0.382l-0.091,0.002c-0.26,0-0.505-0.049-0.739-0.146c-0.233-0.096-0.444-0.235-0.631-0.418
		c0-0.006-0.003-0.011-0.008-0.016v0.464h-0.38v-6.026h0.38v2.846l0.008-0.007c0.187-0.184,0.397-0.324,0.631-0.423
		c0.234-0.1,0.479-0.148,0.739-0.148l0.091,0.002v0.381c-0.03-0.002-0.061-0.003-0.091-0.003c-0.3,0-0.571,0.078-0.814,0.232
		c-0.244,0.155-0.432,0.356-0.563,0.605v1.438c0.132,0.25,0.319,0.45,0.563,0.605C118.899,61.135,119.171,61.212,119.471,61.212z"/>
</g>
<g>
	
		<rect x="122.423" y="55.45" style="fill-rule:evenodd;clip-rule:evenodd;fill:none;stroke:#FFFFFF;stroke-width:0.2775;stroke-linecap:round;stroke-linejoin:round;stroke-miterlimit:22.926;" width="0.381" height="6.027"/>
	<path style="fill-rule:evenodd;clip-rule:evenodd;fill:none;" d="M122.423,55.45h0.381v6.027h-0.381V55.45z"/>
</g>
<g>
	
		<path style="fill-rule:evenodd;clip-rule:evenodd;fill:none;stroke:#FFFFFF;stroke-width:0.2775;stroke-linecap:round;stroke-linejoin:round;stroke-miterlimit:22.926;" d="
		M124.402,61.478h-0.382v-3.652h0.382V61.478L124.402,61.478z M124.531,56.668c0,0.087-0.032,0.162-0.096,0.226
		s-0.138,0.095-0.225,0.095c-0.086,0-0.16-0.031-0.225-0.095c-0.063-0.063-0.095-0.139-0.095-0.226c0-0.086,0.032-0.16,0.095-0.224
		c0.064-0.064,0.139-0.096,0.225-0.096c0.087,0,0.161,0.031,0.225,0.096C124.499,56.508,124.531,56.582,124.531,56.668z"/>
	<path style="fill-rule:evenodd;clip-rule:evenodd;fill:none;" d="M124.402,61.478h-0.382v-3.652h0.382V61.478L124.402,61.478z
		 M124.531,56.668c0,0.087-0.032,0.162-0.096,0.226s-0.138,0.095-0.225,0.095c-0.086,0-0.16-0.031-0.225-0.095
		c-0.063-0.063-0.095-0.139-0.095-0.226c0-0.086,0.032-0.16,0.095-0.224c0.064-0.064,0.139-0.096,0.225-0.096
		c0.087,0,0.161,0.031,0.225,0.096C124.499,56.508,124.531,56.582,124.531,56.668z"/>
</g>
<g>
	
		<path style="fill-rule:evenodd;clip-rule:evenodd;fill:none;stroke:#FFFFFF;stroke-width:0.2775;stroke-linecap:round;stroke-linejoin:round;stroke-miterlimit:22.926;" d="
		M127.362,61.592c-0.259,0-0.507-0.048-0.746-0.144c-0.237-0.097-0.447-0.239-0.632-0.427c-0.182-0.183-0.323-0.392-0.421-0.628
		c-0.1-0.235-0.149-0.483-0.149-0.742s0.05-0.506,0.149-0.741c0.098-0.236,0.239-0.448,0.421-0.636
		c0.185-0.183,0.395-0.322,0.632-0.419c0.239-0.096,0.487-0.145,0.746-0.145s0.506,0.049,0.742,0.145
		c0.236,0.097,0.445,0.236,0.628,0.419l-0.267,0.273c-0.147-0.146-0.315-0.26-0.507-0.339c-0.189-0.077-0.388-0.117-0.597-0.117
		c-0.213,0-0.415,0.04-0.604,0.121c-0.189,0.082-0.356,0.193-0.498,0.335c-0.143,0.143-0.255,0.31-0.339,0.498
		c-0.085,0.191-0.126,0.393-0.126,0.605s0.041,0.415,0.126,0.604c0.084,0.19,0.196,0.357,0.339,0.499
		c0.142,0.143,0.309,0.254,0.498,0.335c0.189,0.082,0.392,0.121,0.604,0.121c0.209,0,0.407-0.038,0.597-0.117
		c0.191-0.079,0.359-0.191,0.507-0.339l0.267,0.274c-0.183,0.182-0.392,0.322-0.628,0.419
		C127.868,61.544,127.621,61.592,127.362,61.592z"/>
	<path style="fill-rule:evenodd;clip-rule:evenodd;fill:none;" d="M127.362,61.592c-0.259,0-0.507-0.048-0.746-0.144
		c-0.237-0.097-0.447-0.239-0.632-0.427c-0.182-0.183-0.323-0.392-0.421-0.628c-0.1-0.235-0.149-0.483-0.149-0.742
		s0.05-0.506,0.149-0.741c0.098-0.236,0.239-0.448,0.421-0.636c0.185-0.183,0.395-0.322,0.632-0.419
		c0.239-0.096,0.487-0.145,0.746-0.145s0.506,0.049,0.742,0.145c0.236,0.097,0.445,0.236,0.628,0.419l-0.267,0.273
		c-0.147-0.146-0.315-0.26-0.507-0.339c-0.189-0.077-0.388-0.117-0.597-0.117c-0.213,0-0.415,0.04-0.604,0.121
		c-0.189,0.082-0.356,0.193-0.498,0.335c-0.143,0.143-0.255,0.31-0.339,0.498c-0.085,0.191-0.126,0.393-0.126,0.605
		s0.041,0.415,0.126,0.604c0.084,0.19,0.196,0.357,0.339,0.499c0.142,0.143,0.309,0.254,0.498,0.335
		c0.189,0.082,0.392,0.121,0.604,0.121c0.209,0,0.407-0.038,0.597-0.117c0.191-0.079,0.359-0.191,0.507-0.339l0.267,0.274
		c-0.183,0.182-0.392,0.322-0.628,0.419C127.868,61.544,127.621,61.592,127.362,61.592z"/>
</g>
<g>
	
		<path style="fill-rule:evenodd;clip-rule:evenodd;fill:none;stroke:#FFFFFF;stroke-width:0.2775;stroke-linecap:round;stroke-linejoin:round;stroke-miterlimit:22.926;" d="
		M130.201,61.478h-0.381v-3.652h0.381V61.478L130.201,61.478z M130.33,56.668c0,0.087-0.032,0.162-0.095,0.226
		c-0.064,0.063-0.139,0.095-0.226,0.095c-0.086,0-0.16-0.031-0.224-0.095s-0.096-0.139-0.096-0.226c0-0.086,0.032-0.16,0.096-0.224
		c0.063-0.064,0.138-0.096,0.224-0.096c0.087,0,0.161,0.031,0.226,0.096C130.298,56.508,130.33,56.582,130.33,56.668z"/>
	<path style="fill-rule:evenodd;clip-rule:evenodd;fill:none;" d="M130.201,61.478h-0.381v-3.652h0.381V61.478L130.201,61.478z
		 M130.33,56.668c0,0.087-0.032,0.162-0.095,0.226c-0.064,0.063-0.139,0.095-0.226,0.095c-0.086,0-0.16-0.031-0.224-0.095
		s-0.096-0.139-0.096-0.226c0-0.086,0.032-0.16,0.096-0.224c0.063-0.064,0.138-0.096,0.224-0.096c0.087,0,0.161,0.031,0.226,0.096
		C130.298,56.508,130.33,56.582,130.33,56.668z"/>
</g>
<g>
	
		<path style="fill-rule:evenodd;clip-rule:evenodd;fill:none;stroke:#FFFFFF;stroke-width:0.2775;stroke-linecap:round;stroke-linejoin:round;stroke-miterlimit:22.926;" d="
		M133.153,61.219c0.305,0,0.579-0.076,0.822-0.228c0.242-0.152,0.432-0.354,0.563-0.602v-1.469c-0.131-0.249-0.32-0.449-0.563-0.601
		c-0.243-0.152-0.518-0.229-0.822-0.229c-0.213,0-0.415,0.041-0.604,0.122c-0.19,0.081-0.357,0.194-0.498,0.335
		c-0.143,0.143-0.254,0.309-0.336,0.499c-0.081,0.189-0.121,0.395-0.121,0.612c0,0.213,0.04,0.414,0.121,0.605
		c0.082,0.19,0.193,0.355,0.336,0.498c0.141,0.142,0.308,0.254,0.498,0.335C132.738,61.179,132.94,61.219,133.153,61.219
		L133.153,61.219z M134.919,61.478h-0.381v-0.457c0,0.006-0.002,0.009-0.007,0.009c-0.183,0.183-0.393,0.323-0.629,0.422
		c-0.235,0.099-0.486,0.149-0.749,0.149c-0.26,0-0.506-0.051-0.742-0.149s-0.444-0.239-0.628-0.422
		c-0.182-0.183-0.323-0.392-0.422-0.629c-0.099-0.235-0.149-0.482-0.149-0.741c0-0.264,0.051-0.514,0.149-0.749
		c0.099-0.237,0.24-0.445,0.422-0.629c0.184-0.183,0.392-0.323,0.628-0.422s0.482-0.148,0.742-0.148c0.263,0,0.514,0.05,0.749,0.148
		c0.236,0.099,0.446,0.239,0.629,0.422l0.007,0.008v-2.838h0.381V61.478z"/>
	<path style="fill-rule:evenodd;clip-rule:evenodd;fill:none;" d="M133.153,61.219c0.305,0,0.579-0.076,0.822-0.228
		c0.242-0.152,0.432-0.354,0.563-0.602v-1.469c-0.131-0.249-0.32-0.449-0.563-0.601c-0.243-0.152-0.518-0.229-0.822-0.229
		c-0.029,0-0.059,0.001-0.088,0.003v-0.381l0.088-0.002c0.263,0,0.514,0.05,0.749,0.148c0.236,0.099,0.446,0.239,0.629,0.422
		l0.007,0.008v-2.838h0.381v6.026h-0.381v-0.457c0,0.006-0.002,0.009-0.007,0.009c-0.183,0.183-0.393,0.323-0.629,0.422
		c-0.235,0.099-0.486,0.149-0.749,0.149l-0.088-0.002v-0.382L133.153,61.219z M133.065,58.094c-0.181,0.01-0.354,0.05-0.517,0.119
		c-0.19,0.081-0.357,0.194-0.498,0.335c-0.143,0.143-0.254,0.309-0.336,0.499c-0.081,0.189-0.121,0.395-0.121,0.612
		c0,0.213,0.04,0.414,0.121,0.605c0.082,0.19,0.193,0.355,0.336,0.498c0.141,0.142,0.308,0.254,0.498,0.335
		c0.163,0.07,0.336,0.109,0.517,0.119v0.382c-0.228-0.011-0.445-0.061-0.654-0.147c-0.236-0.099-0.444-0.239-0.628-0.422
		c-0.182-0.183-0.323-0.392-0.422-0.629c-0.099-0.235-0.149-0.482-0.149-0.741c0-0.264,0.051-0.514,0.149-0.749
		c0.099-0.237,0.24-0.445,0.422-0.629c0.184-0.183,0.392-0.323,0.628-0.422c0.209-0.088,0.427-0.137,0.654-0.146V58.094z"/>
</g>
<g>
	
		<path style="fill-rule:evenodd;clip-rule:evenodd;fill:none;stroke:#FFFFFF;stroke-width:0.2775;stroke-linecap:round;stroke-linejoin:round;stroke-miterlimit:22.926;" d="
		M137.872,61.212c0.303,0,0.578-0.077,0.822-0.232c0.242-0.155,0.431-0.355,0.562-0.605v-1.438c-0.131-0.249-0.319-0.45-0.562-0.605
		c-0.244-0.154-0.52-0.232-0.822-0.232c-0.214,0-0.414,0.041-0.602,0.122s-0.353,0.193-0.495,0.335
		c-0.141,0.143-0.253,0.309-0.335,0.499c-0.08,0.189-0.121,0.392-0.121,0.604s0.041,0.414,0.121,0.602
		c0.082,0.188,0.194,0.353,0.335,0.494c0.143,0.142,0.308,0.255,0.495,0.336C137.458,61.171,137.658,61.212,137.872,61.212
		L137.872,61.212z M139.638,61.478h-0.382v-0.464l-0.015,0.016c-0.183,0.183-0.392,0.322-0.627,0.418
		c-0.237,0.097-0.483,0.146-0.742,0.146c-0.26,0-0.505-0.049-0.739-0.146c-0.232-0.096-0.443-0.235-0.632-0.418
		c-0.182-0.188-0.322-0.399-0.417-0.632c-0.098-0.233-0.146-0.479-0.146-0.738s0.048-0.507,0.146-0.742
		c0.095-0.235,0.235-0.444,0.417-0.627c0.188-0.184,0.399-0.324,0.632-0.423c0.234-0.1,0.479-0.148,0.739-0.148
		c0.259,0,0.505,0.049,0.742,0.148c0.235,0.099,0.444,0.239,0.627,0.423c0.006,0,0.008,0,0.008,0.003s0.004,0.004,0.007,0.004
		v-0.319h0.382V61.478z"/>
	<path style="fill-rule:evenodd;clip-rule:evenodd;fill:none;" d="M137.872,61.212c0.303,0,0.578-0.077,0.822-0.232
		c0.242-0.155,0.431-0.355,0.562-0.605v-1.438c-0.131-0.249-0.319-0.45-0.562-0.605c-0.244-0.154-0.52-0.232-0.822-0.232
		l-0.084,0.002v-0.38l0.084-0.002c0.259,0,0.505,0.049,0.742,0.148c0.235,0.099,0.444,0.239,0.627,0.423
		c0.006,0,0.008,0,0.008,0.003s0.004,0.004,0.007,0.004v-0.319h0.382v3.5h-0.382v-0.464l-0.015,0.016
		c-0.183,0.183-0.392,0.322-0.627,0.418c-0.237,0.097-0.483,0.146-0.742,0.146l-0.084-0.002v-0.382L137.872,61.212z M137.788,58.101
		c-0.183,0.01-0.354,0.051-0.518,0.12c-0.188,0.081-0.353,0.193-0.495,0.335c-0.141,0.143-0.253,0.309-0.335,0.499
		c-0.08,0.189-0.121,0.392-0.121,0.604s0.041,0.414,0.121,0.602c0.082,0.188,0.194,0.353,0.335,0.494
		c0.143,0.142,0.308,0.255,0.495,0.336c0.163,0.069,0.335,0.109,0.518,0.118v0.382c-0.229-0.01-0.447-0.058-0.655-0.144
		c-0.232-0.096-0.443-0.235-0.632-0.418c-0.182-0.188-0.322-0.399-0.417-0.632c-0.098-0.233-0.146-0.479-0.146-0.738
		s0.048-0.507,0.146-0.742c0.095-0.235,0.235-0.444,0.417-0.627c0.188-0.184,0.399-0.324,0.632-0.423
		c0.208-0.089,0.426-0.138,0.655-0.146V58.101z"/>
</g>
<g>
	
		<path style="fill-rule:evenodd;clip-rule:evenodd;fill:none;stroke:#FFFFFF;stroke-width:0.2775;stroke-linecap:round;stroke-linejoin:round;stroke-miterlimit:22.926;" d="
		M142.59,61.219c0.304,0,0.578-0.076,0.822-0.228c0.242-0.152,0.431-0.354,0.562-0.602v-1.469c-0.131-0.249-0.319-0.449-0.562-0.601
		c-0.244-0.152-0.519-0.229-0.822-0.229c-0.214,0-0.416,0.041-0.605,0.122s-0.356,0.194-0.498,0.335
		c-0.143,0.143-0.254,0.309-0.336,0.499c-0.08,0.189-0.121,0.395-0.121,0.612c0,0.213,0.041,0.414,0.121,0.605
		c0.082,0.19,0.193,0.355,0.336,0.498c0.142,0.142,0.309,0.254,0.498,0.335S142.376,61.219,142.59,61.219L142.59,61.219z
		 M144.354,61.478h-0.381v-0.457c0,0.006-0.002,0.009-0.007,0.009c-0.183,0.183-0.393,0.323-0.628,0.422
		c-0.236,0.099-0.486,0.149-0.749,0.149c-0.26,0-0.507-0.051-0.742-0.149c-0.236-0.099-0.445-0.239-0.629-0.422
		c-0.182-0.183-0.323-0.392-0.422-0.629c-0.099-0.235-0.148-0.482-0.148-0.741c0-0.264,0.05-0.514,0.148-0.749
		c0.099-0.237,0.24-0.445,0.422-0.629c0.184-0.183,0.393-0.323,0.629-0.422c0.235-0.099,0.482-0.148,0.742-0.148
		c0.263,0,0.513,0.05,0.749,0.148c0.235,0.099,0.445,0.239,0.628,0.422l0.007,0.008v-2.838h0.381V61.478z"/>
	<path style="fill-rule:evenodd;clip-rule:evenodd;fill:none;" d="M142.59,61.219c0.304,0,0.578-0.076,0.822-0.228
		c0.242-0.152,0.431-0.354,0.562-0.602v-1.469c-0.131-0.249-0.319-0.449-0.562-0.601c-0.244-0.152-0.519-0.229-0.822-0.229
		c-0.029,0-0.06,0.001-0.088,0.003v-0.381l0.088-0.002c0.263,0,0.513,0.05,0.749,0.148c0.235,0.099,0.445,0.239,0.628,0.422
		l0.007,0.008v-2.838h0.381v6.026h-0.381v-0.457c0,0.006-0.002,0.009-0.007,0.009c-0.183,0.183-0.393,0.323-0.628,0.422
		c-0.236,0.099-0.486,0.149-0.749,0.149l-0.088-0.002v-0.382L142.59,61.219z M142.502,58.094c-0.182,0.01-0.354,0.05-0.518,0.119
		c-0.189,0.081-0.356,0.194-0.498,0.335c-0.143,0.143-0.254,0.309-0.336,0.499c-0.08,0.189-0.121,0.395-0.121,0.612
		c0,0.213,0.041,0.414,0.121,0.605c0.082,0.19,0.193,0.355,0.336,0.498c0.142,0.142,0.309,0.254,0.498,0.335
		c0.163,0.07,0.336,0.109,0.518,0.119v0.382c-0.229-0.011-0.445-0.061-0.654-0.147c-0.236-0.099-0.445-0.239-0.629-0.422
		c-0.182-0.183-0.323-0.392-0.422-0.629c-0.099-0.235-0.148-0.482-0.148-0.741c0-0.264,0.05-0.514,0.148-0.749
		c0.099-0.237,0.24-0.445,0.422-0.629c0.184-0.183,0.393-0.323,0.629-0.422c0.209-0.088,0.426-0.137,0.654-0.146V58.094z"/>
</g>
<linearGradient id="SVGID_1_" gradientUnits="userSpaceOnUse" x1="4.4644" y1="37.4795" x2="55.3612" y2="37.4795">
	<stop  offset="0" style="stop-color:#D35A2A"/>
	<stop  offset="0.01" style="stop-color:#D35A2A"/>
	<stop  offset="0.02" style="stop-color:#D35A2A"/>
	<stop  offset="0.03" style="stop-color:#D35A2A"/>
	<stop  offset="0.04" style="stop-color:#D35D2A"/>
	<stop  offset="0.05" style="stop-color:#D35D2A"/>
	<stop  offset="0.06" style="stop-color:#D35D2A"/>
	<stop  offset="0.07" style="stop-color:#D35D2A"/>
	<stop  offset="0.08" style="stop-color:#D45F2A"/>
	<stop  offset="0.09" style="stop-color:#D45F2A"/>
	<stop  offset="0.1" style="stop-color:#D45F2A"/>
	<stop  offset="0.11" style="stop-color:#D45F2A"/>
	<stop  offset="0.12" style="stop-color:#D45F2A"/>
	<stop  offset="0.13" style="stop-color:#D45F2A"/>
	<stop  offset="0.14" style="stop-color:#D45F2A"/>
	<stop  offset="0.15" style="stop-color:#D4612B"/>
	<stop  offset="0.16" style="stop-color:#D4612B"/>
	<stop  offset="0.17" style="stop-color:#D4612B"/>
	<stop  offset="0.18" style="stop-color:#D4612B"/>
	<stop  offset="0.19" style="stop-color:#D4612B"/>
	<stop  offset="0.2" style="stop-color:#D4632B"/>
	<stop  offset="0.21" style="stop-color:#D4632B"/>
	<stop  offset="0.22" style="stop-color:#D4632B"/>
	<stop  offset="0.23" style="stop-color:#D4632B"/>
	<stop  offset="0.24" style="stop-color:#D4632B"/>
	<stop  offset="0.25" style="stop-color:#D4632B"/>
	<stop  offset="0.26" style="stop-color:#D5652B"/>
	<stop  offset="0.27" style="stop-color:#D5652B"/>
	<stop  offset="0.28" style="stop-color:#D5652B"/>
	<stop  offset="0.29" style="stop-color:#D5652B"/>
	<stop  offset="0.3" style="stop-color:#D5672B"/>
	<stop  offset="0.31" style="stop-color:#D5672B"/>
	<stop  offset="0.32" style="stop-color:#D6692B"/>
	<stop  offset="0.33" style="stop-color:#D6692B"/>
	<stop  offset="0.34" style="stop-color:#D66B2B"/>
	<stop  offset="0.35" style="stop-color:#D66B2B"/>
	<stop  offset="0.36" style="stop-color:#D76D2B"/>
	<stop  offset="0.37" style="stop-color:#D76D2B"/>
	<stop  offset="0.38" style="stop-color:#D76F2C"/>
	<stop  offset="0.39" style="stop-color:#D7712C"/>
	<stop  offset="0.4" style="stop-color:#D7712C"/>
	<stop  offset="0.41" style="stop-color:#D8732C"/>
	<stop  offset="0.42" style="stop-color:#D8742C"/>
	<stop  offset="0.43" style="stop-color:#D9762C"/>
	<stop  offset="0.44" style="stop-color:#D9782C"/>
	<stop  offset="0.45" style="stop-color:#D97A2C"/>
	<stop  offset="0.46" style="stop-color:#D97A2C"/>
	<stop  offset="0.47" style="stop-color:#DA7C2D"/>
	<stop  offset="0.48" style="stop-color:#DA7D2D"/>
	<stop  offset="0.49" style="stop-color:#DB7F2D"/>
	<stop  offset="0.5" style="stop-color:#DB812D"/>
	<stop  offset="0.51" style="stop-color:#DB812D"/>
	<stop  offset="0.52" style="stop-color:#DC832D"/>
	<stop  offset="0.53" style="stop-color:#DC842D"/>
	<stop  offset="0.54" style="stop-color:#DD862D"/>
	<stop  offset="0.55" style="stop-color:#DD882E"/>
	<stop  offset="0.56" style="stop-color:#DE8A2E"/>
	<stop  offset="0.57" style="stop-color:#DE8A2E"/>
	<stop  offset="0.58" style="stop-color:#DE8B2E"/>
	<stop  offset="0.59" style="stop-color:#DF8D2E"/>
	<stop  offset="0.6" style="stop-color:#DF8F2E"/>
	<stop  offset="0.61" style="stop-color:#DF902E"/>
	<stop  offset="0.62" style="stop-color:#DF902E"/>
	<stop  offset="0.63" style="stop-color:#E0922E"/>
	<stop  offset="0.64" style="stop-color:#E0942F"/>
	<stop  offset="0.65" style="stop-color:#E1962F"/>
	<stop  offset="0.66" style="stop-color:#E2982F"/>
	<stop  offset="0.67" style="stop-color:#E2992F"/>
	<stop  offset="0.68" style="stop-color:#E39B2F"/>
	<stop  offset="0.69" style="stop-color:#E39B2F"/>
	<stop  offset="0.7" style="stop-color:#E39D2F"/>
	<stop  offset="0.71" style="stop-color:#E49F2F"/>
	<stop  offset="0.72" style="stop-color:#E4A12F"/>
	<stop  offset="0.73" style="stop-color:#E4A12F"/>
	<stop  offset="0.74" style="stop-color:#E5A22F"/>
	<stop  offset="0.75" style="stop-color:#E5A42F"/>
	<stop  offset="0.76" style="stop-color:#E7A830"/>
	<stop  offset="0.77" style="stop-color:#E7AA30"/>
	<stop  offset="0.78" style="stop-color:#E8AC30"/>
	<stop  offset="0.79" style="stop-color:#E8AE30"/>
	<stop  offset="0.8" style="stop-color:#E9AF30"/>
	<stop  offset="0.81" style="stop-color:#EAB130"/>
	<stop  offset="0.82" style="stop-color:#EBB530"/>
	<stop  offset="0.83" style="stop-color:#ECB730"/>
	<stop  offset="0.84" style="stop-color:#ECB930"/>
	<stop  offset="0.85" style="stop-color:#EDBB30"/>
	<stop  offset="0.86" style="stop-color:#EEBD30"/>
	<stop  offset="0.87" style="stop-color:#EFC030"/>
	<stop  offset="0.88" style="stop-color:#F0C230"/>
	<stop  offset="0.89" style="stop-color:#F0C430"/>
	<stop  offset="0.9" style="stop-color:#F1C630"/>
	<stop  offset="0.91" style="stop-color:#F2C830"/>
	<stop  offset="0.92" style="stop-color:#F2CA30"/>
	<stop  offset="0.93" style="stop-color:#F4CD30"/>
	<stop  offset="0.94" style="stop-color:#F4CF30"/>
	<stop  offset="0.95" style="stop-color:#F5D130"/>
	<stop  offset="0.96" style="stop-color:#F6D330"/>
	<stop  offset="0.97" style="stop-color:#F6D52F"/>
	<stop  offset="0.98" style="stop-color:#F7D72F"/>
	<stop  offset="0.99" style="stop-color:#F9DA2F"/>
	<stop  offset="1" style="stop-color:#F9DC2F"/>
</linearGradient>
<path style="fill-rule:evenodd;clip-rule:evenodd;fill:url(#SVGID_1_);" d="M26.906,7.944C14.244,9.776,4.412,20.346,4.349,33.156
	l0,0C4.297,43.784,4.336,54.413,4.35,65.042l0,0c0.001,0.711-0.172,1.476,0.351,2.101l0,0c6.077-0.583,10.721-5.72,10.383-12.29l0,0
	c-0.352-6.843-0.075-13.718-0.068-20.58l0,0c0-1.684,0.141-3.348,0.686-4.958l0,0c1.959-5.776,5.93-9.302,11.903-10.604l0,0
	c0.759-0.166,1.646-0.132,1.63-1.34l0,0c-0.04-3.081-0.013-6.163-0.013-9.554C28.232,7.868,27.56,7.849,26.906,7.944L26.906,7.944z
	 M32.114,7.847c0.185-0.01,0.368-0.015,0.546-0.015l0,0c1.343,0,2.542,0.25,3.734,0.513l0,0
	c9.829,2.169,18.164,10.474,19.856,19.749l0,0c2.077,11.382-1.512,20.544-10.962,27.298l0,0c-4.246,3.035-9.072,4.525-14.31,4.57
	l0,0c-4.304,0.036-8.609,0.008-13.044,0.008V49.685l0,0c0.483-0.46,1.066-0.43,1.641-0.398l0,0c0.156,0.008,0.311,0.016,0.464,0.014
	l0,0c2.837-0.023,5.677-0.086,8.512,0.007l0,0c3.864,0.13,7.508-0.465,10.751-2.714l0,0c3.871-2.685,6.06-6.34,6.472-11.046l0,0
	c0.535-6.138-1.683-10.998-6.833-14.416l0,0c-2-1.329-4.22-2.261-6.828-2.48V7.847L32.114,7.847z M22.717,32.111L22.717,32.111
	c0.726-3.878,4.161-6.247,7.843-6.246l0,0c1.344,0,2.722,0.314,4.012,0.987l0,0c3.979,2.076,4.421,6.527,3.755,9.242l0,0
	c-0.823,3.355-3.98,5.701-7.646,5.772l0,0c-2.621,0.051-5.243,0.011-8.106,0.011l0,0C22.458,38.39,22.137,35.219,22.717,32.111z"/>
</svg>
